<?xml version="1.0" encoding="UTF-8" standalone="no"?>
<svg
   xmlns:dc="http://purl.org/dc/elements/1.1/"
   xmlns:cc="http://creativecommons.org/ns#"
   xmlns:rdf="http://www.w3.org/1999/02/22-rdf-syntax-ns#"
   xmlns:svg="http://www.w3.org/2000/svg"
   xmlns="http://www.w3.org/2000/svg"
   xmlns:sodipodi="http://sodipodi.sourceforge.net/DTD/sodipodi-0.dtd"
   xmlns:inkscape="http://www.inkscape.org/namespaces/inkscape"
   version="1.1"
   viewBox="0 0 689 161"
   stroke-miterlimit="10"
   id="svg2"
   inkscape:version="0.48.4 r9939"
   width="100%"
   height="100%"
   sodipodi:docname="dense.svg"
   style="fill:none;stroke:none">
  <metadata
     id="metadata231">
    <rdf:RDF>
      <cc:Work
         rdf:about="">
        <dc:format>image/svg+xml</dc:format>
        <dc:type
           rdf:resource="http://purl.org/dc/dcmitype/StillImage" />
      </cc:Work>
    </rdf:RDF>
  </metadata>
  <defs
     id="defs229" />
  <sodipodi:namedview
     pagecolor="#ffffff"
     bordercolor="#666666"
     borderopacity="1"
     objecttolerance="10"
     gridtolerance="10"
     guidetolerance="10"
     inkscape:pageopacity="0"
     inkscape:pageshadow="2"
     inkscape:window-width="640"
     inkscape:window-height="480"
     id="namedview227"
     showgrid="false"
     fit-margin-top="0"
     fit-margin-left="0"
     fit-margin-right="0"
     fit-margin-bottom="0"
     inkscape:zoom="0.26367188"
     inkscape:cx="352"
     inkscape:cy="105"
     inkscape:window-x="0"
     inkscape:window-y="0"
     inkscape:window-maximized="0"
     inkscape:current-layer="svg2" />
  <clipPath
     id="p.0">
    <path
       d="m 0,0 1024,0 0,768 L 0,768 0,0 z"
       clip-rule="nonzero"
       id="path5"
       inkscape:connector-curvature="0" />
  </clipPath>
  <path
     style="fill:#d9ead3;fill-rule:nonzero"
     inkscape:connector-curvature="0"
     id="path11"
     d="m 144,8 256,0 0,64 -256,0 z" />
  <path
     style="stroke:#000000;stroke-width:2;stroke-linecap:butt;stroke-linejoin:round"
     inkscape:connector-curvature="0"
     id="path13"
     d="m 144,8 256,0 0,64 -256,0 z" />
  <path
     style="fill:#000000;fill-opacity:0;fill-rule:nonzero"
     inkscape:connector-curvature="0"
     id="path15"
     d="m 144,0 88,0 0,40 -88,0 z" />
  <path
     style="fill:#000000;fill-rule:nonzero"
     inkscape:connector-curvature="0"
     id="path17"
     d="m 153.85938,22.54498 1.6875,-0.14063 q 0.125,1.01563 0.5625,1.67188 0.4375,0.65625 1.35937,1.0625 0.9375,0.40625 2.09375,0.40625 1.03125,0 1.8125,-0.3125 0.79688,-0.3125 1.1875,-0.84375 0.39063,-0.53125 0.39063,-1.15625 0,-0.64063 -0.375,-1.10938 -0.375,-0.48437 -1.23438,-0.8125 -0.54687,-0.21875 -2.42187,-0.65625 -1.875,-0.45312 -2.625,-0.85937 -0.96875,-0.51563 -1.45313,-1.26563 -0.46875,-0.75 -0.46875,-1.6875 0,-1.03125 0.57813,-1.92187 0.59375,-0.90625 1.70312,-1.35938 1.125,-0.46875 2.5,-0.46875 1.51563,0 2.67188,0.48438 1.15625,0.48437 1.76562,1.4375 0.625,0.9375 0.67188,2.14062 l -1.71875,0.125 q -0.14063,-1.28125 -0.95313,-1.9375 -0.79687,-0.67187 -2.35937,-0.67187 -1.625,0 -2.375,0.60937 -0.75,0.59375 -0.75,1.4375 0,0.73438 0.53125,1.20313 0.51562,0.46875 2.70312,0.96875 2.20313,0.5 3.01563,0.875 1.1875,0.54687 1.75,1.39062 0.57812,0.82813 0.57812,1.92188 0,1.09375 -0.625,2.0625 -0.625,0.95312 -1.79687,1.48437 -1.15625,0.53125 -2.60938,0.53125 -1.84375,0 -3.09375,-0.53125 -1.25,-0.54687 -1.96875,-1.625 -0.70312,-1.07812 -0.73437,-2.45312 z m 12.8342,8.15625 0,-13.64063 1.53125,0 0,1.28125 q 0.53125,-0.75 1.20312,-1.125 0.6875,-0.375 1.64063,-0.375 1.26562,0 2.23437,0.65625 0.96875,0.64063 1.45313,1.82813 0.5,1.1875 0.5,2.59375 0,1.51562 -0.54688,2.73437 -0.54687,1.20313 -1.57812,1.84375 -1.03125,0.64063 -2.17188,0.64063 -0.84375,0 -1.51562,-0.34375 -0.65625,-0.35938 -1.07813,-0.89063 l 0,4.79688 -1.67187,0 z m 1.51562,-8.65625 q 0,1.90625 0.76563,2.8125 0.78125,0.90625 1.875,0.90625 1.10937,0 1.89062,-0.9375 0.79688,-0.9375 0.79688,-2.92188 0,-1.875 -0.78125,-2.8125 -0.76563,-0.9375 -1.84375,-0.9375 -1.0625,0 -1.89063,1 -0.8125,1 -0.8125,2.89063 z m 15.29758,3.65625 q -0.9375,0.79687 -1.79688,1.125 -0.85937,0.3125 -1.84375,0.3125 -1.60937,0 -2.48437,-0.78125 -0.875,-0.79688 -0.875,-2.03125 0,-0.73438 0.32812,-1.32813 0.32813,-0.59375 0.85938,-0.95312 0.53125,-0.35938 1.20312,-0.54688 0.5,-0.14062 1.48438,-0.25 2.03125,-0.25 2.98437,-0.57812 0,-0.34375 0,-0.4375 0,-1.01563 -0.46875,-1.4375 -0.64062,-0.5625 -1.90625,-0.5625 -1.17187,0 -1.73437,0.40625 -0.5625,0.40625 -0.82813,1.46875 l -1.64062,-0.23438 q 0.23437,-1.04687 0.73437,-1.6875 0.51563,-0.64062 1.46875,-0.98437 0.96875,-0.35938 2.25,-0.35938 1.26563,0 2.04688,0.29688 0.78125,0.29687 1.15625,0.75 0.375,0.45312 0.51562,1.14062 0.0937,0.42188 0.0937,1.53125 l 0,2.23438 q 0,2.32812 0.0937,2.95312 0.10938,0.60938 0.4375,1.17188 l -1.75,0 q -0.26562,-0.51563 -0.32812,-1.21875 z m -0.14063,-3.71875 q -0.90625,0.35937 -2.73437,0.625 -1.03125,0.14062 -1.45313,0.32812 -0.42187,0.1875 -0.65625,0.54688 -0.23437,0.35937 -0.23437,0.79687 0,0.67188 0.5,1.125 0.51562,0.4375 1.48437,0.4375 0.96875,0 1.71875,-0.42187 0.75,-0.4375 1.10938,-1.15625 0.26562,-0.57813 0.26562,-1.67188 l 0,-0.60937 z m 4.07886,4.9375 0,-9.85938 1.5,0 0,1.40625 q 1.09375,-1.625 3.14063,-1.625 0.89062,0 1.64062,0.32813 0.75,0.3125 1.10938,0.84375 0.375,0.51562 0.53125,1.21875 0.0937,0.46875 0.0937,1.625 l 0,6.0625 -1.67188,0 0,-6 q 0,-1.01563 -0.20312,-1.51563 -0.1875,-0.51562 -0.6875,-0.8125 -0.5,-0.29687 -1.17188,-0.29687 -1.0625,0 -1.84375,0.67187 -0.76562,0.67188 -0.76562,2.57813 l 0,5.375 -1.67188,0 z m 21.38715,0 -1.67188,0 0,-10.64063 q -0.59375,0.57813 -1.57812,1.15625 -0.98438,0.5625 -1.76563,0.85938 l 0,-1.625 q 1.40625,-0.65625 2.45313,-1.59375 1.04687,-0.9375 1.48437,-1.8125 l 1.07813,0 0,13.65625 z" />
  <path
     style="fill:#000000;fill-opacity:0;fill-rule:nonzero"
     inkscape:connector-curvature="0"
     id="path19"
     d="m 144,8 0,64" />
  <path
     style="stroke:#000000;stroke-width:2;stroke-linecap:butt;stroke-linejoin:round"
     inkscape:connector-curvature="0"
     id="path21"
     d="m 144,8 0,64" />
  <path
     style="fill:#000000;fill-opacity:0;fill-rule:nonzero"
     inkscape:connector-curvature="0"
     id="path23"
     d="m 272,8 0,64" />
  <path
     style="stroke:#000000;stroke-width:2;stroke-linecap:butt;stroke-linejoin:round"
     inkscape:connector-curvature="0"
     id="path25"
     d="m 272,8 0,64" />
  <path
     style="fill:#000000;fill-opacity:0;fill-rule:nonzero"
     inkscape:connector-curvature="0"
     id="path27"
     d="m 272,0 88,0 0,40 -88,0 z" />
  <path
     style="fill:#000000;fill-rule:nonzero"
     inkscape:connector-curvature="0"
     id="path29"
     d="m 281.85938,22.54498 1.6875,-0.14063 q 0.125,1.01563 0.5625,1.67188 0.4375,0.65625 1.35937,1.0625 0.9375,0.40625 2.09375,0.40625 1.03125,0 1.8125,-0.3125 0.79688,-0.3125 1.1875,-0.84375 0.39063,-0.53125 0.39063,-1.15625 0,-0.64063 -0.375,-1.10938 -0.375,-0.48437 -1.23438,-0.8125 -0.54687,-0.21875 -2.42187,-0.65625 -1.875,-0.45312 -2.625,-0.85937 -0.96875,-0.51563 -1.45313,-1.26563 -0.46875,-0.75 -0.46875,-1.6875 0,-1.03125 0.57813,-1.92187 0.59375,-0.90625 1.70312,-1.35938 1.125,-0.46875 2.5,-0.46875 1.51563,0 2.67188,0.48438 1.15625,0.48437 1.76562,1.4375 0.625,0.9375 0.67188,2.14062 l -1.71875,0.125 q -0.14063,-1.28125 -0.95313,-1.9375 -0.79687,-0.67187 -2.35937,-0.67187 -1.625,0 -2.375,0.60937 -0.75,0.59375 -0.75,1.4375 0,0.73438 0.53125,1.20313 0.51562,0.46875 2.70312,0.96875 2.20313,0.5 3.01563,0.875 1.1875,0.54687 1.75,1.39062 0.57812,0.82813 0.57812,1.92188 0,1.09375 -0.625,2.0625 -0.625,0.95312 -1.79687,1.48437 -1.15625,0.53125 -2.60938,0.53125 -1.84375,0 -3.09375,-0.53125 -1.25,-0.54687 -1.96875,-1.625 -0.70312,-1.07812 -0.73437,-2.45312 z m 12.8342,8.15625 0,-13.64063 1.53125,0 0,1.28125 q 0.53125,-0.75 1.20312,-1.125 0.6875,-0.375 1.64063,-0.375 1.26562,0 2.23437,0.65625 0.96875,0.64063 1.45313,1.82813 0.5,1.1875 0.5,2.59375 0,1.51562 -0.54688,2.73437 -0.54687,1.20313 -1.57812,1.84375 -1.03125,0.64063 -2.17188,0.64063 -0.84375,0 -1.51562,-0.34375 -0.65625,-0.35938 -1.07813,-0.89063 l 0,4.79688 -1.67187,0 z m 1.51562,-8.65625 q 0,1.90625 0.76563,2.8125 0.78125,0.90625 1.875,0.90625 1.10937,0 1.89062,-0.9375 0.79688,-0.9375 0.79688,-2.92188 0,-1.875 -0.78125,-2.8125 -0.76563,-0.9375 -1.84375,-0.9375 -1.0625,0 -1.89063,1 -0.8125,1 -0.8125,2.89063 z m 15.29758,3.65625 q -0.9375,0.79687 -1.79688,1.125 -0.85937,0.3125 -1.84375,0.3125 -1.60937,0 -2.48437,-0.78125 -0.875,-0.79688 -0.875,-2.03125 0,-0.73438 0.32812,-1.32813 0.32813,-0.59375 0.85938,-0.95312 0.53125,-0.35938 1.20312,-0.54688 0.5,-0.14062 1.48438,-0.25 2.03125,-0.25 2.98437,-0.57812 0,-0.34375 0,-0.4375 0,-1.01563 -0.46875,-1.4375 -0.64062,-0.5625 -1.90625,-0.5625 -1.17187,0 -1.73437,0.40625 -0.5625,0.40625 -0.82813,1.46875 l -1.64062,-0.23438 q 0.23437,-1.04687 0.73437,-1.6875 0.51563,-0.64062 1.46875,-0.98437 0.96875,-0.35938 2.25,-0.35938 1.26563,0 2.04688,0.29688 0.78125,0.29687 1.15625,0.75 0.375,0.45312 0.51562,1.14062 0.0937,0.42188 0.0937,1.53125 l 0,2.23438 q 0,2.32812 0.0937,2.95312 0.10938,0.60938 0.4375,1.17188 l -1.75,0 q -0.26562,-0.51563 -0.32812,-1.21875 z m -0.14063,-3.71875 q -0.90625,0.35937 -2.73437,0.625 -1.03125,0.14062 -1.45313,0.32812 -0.42187,0.1875 -0.65625,0.54688 -0.23437,0.35937 -0.23437,0.79687 0,0.67188 0.5,1.125 0.51562,0.4375 1.48437,0.4375 0.96875,0 1.71875,-0.42187 0.75,-0.4375 1.10938,-1.15625 0.26562,-0.57813 0.26562,-1.67188 l 0,-0.60937 z m 4.07886,4.9375 0,-9.85938 1.5,0 0,1.40625 q 1.09375,-1.625 3.14063,-1.625 0.89062,0 1.64062,0.32813 0.75,0.3125 1.10938,0.84375 0.375,0.51562 0.53125,1.21875 0.0937,0.46875 0.0937,1.625 l 0,6.0625 -1.67188,0 0,-6 q 0,-1.01563 -0.20312,-1.51563 -0.1875,-0.51562 -0.6875,-0.8125 -0.5,-0.29687 -1.17188,-0.29687 -1.0625,0 -1.84375,0.67187 -0.76562,0.67188 -0.76562,2.57813 l 0,5.375 -1.67188,0 z m 23.87152,-1.60938 0,1.60938 -8.98437,0 q -0.0156,-0.60938 0.1875,-1.15625 0.34375,-0.92188 1.09375,-1.8125 0.76562,-0.89063 2.1875,-2.0625 2.21875,-1.8125 3,-2.875 0.78125,-1.0625 0.78125,-2.01563 0,-0.98437 -0.71875,-1.67187 -0.70313,-0.6875 -1.84375,-0.6875 -1.20313,0 -1.9375,0.73437 -0.71875,0.71875 -0.71875,2 l -1.71875,-0.17187 q 0.17187,-1.92188 1.32812,-2.92188 1.15625,-1.01562 3.09375,-1.01562 1.95313,0 3.09375,1.09375 1.14063,1.07812 1.14063,2.6875 0,0.8125 -0.34375,1.60937 -0.32813,0.78125 -1.10938,1.65625 -0.76562,0.85938 -2.5625,2.39063 -1.5,1.26562 -1.9375,1.71875 -0.42187,0.4375 -0.70312,0.89062 l 6.67187,0 z" />
  <path
     style="fill:#000000;fill-opacity:0;fill-rule:nonzero"
     inkscape:connector-curvature="0"
     id="path31"
     d="m 400,8 0,64" />
  <path
     style="stroke:#000000;stroke-width:2;stroke-linecap:butt;stroke-linejoin:round"
     inkscape:connector-curvature="0"
     id="path33"
     d="m 400,8 0,64" />
  <path
     style="fill:#000000;fill-opacity:0;fill-rule:nonzero"
     inkscape:connector-curvature="0"
     id="path35"
     d="m 0,20 144,0 0,40 -144,0 z" />
  <path
     style="fill:#000000;fill-rule:nonzero"
     inkscape:connector-curvature="0"
     id="path37"
     d="m 10.51562,46.91998 0,-13.59375 1.8125,0 0,5.57812 7.0625,0 0,-5.57812 1.79688,0 0,13.59375 -1.79688,0 0,-6.40625 -7.0625,0 0,6.40625 -1.8125,0 z m 19.95732,-3.17188 1.71875,0.21875 q -0.40625,1.5 -1.51562,2.34375 -1.09375,0.82813 -2.8125,0.82813 -2.15625,0 -3.42188,-1.32813 -1.26562,-1.32812 -1.26562,-3.73437 0,-2.48438 1.26562,-3.85938 1.28125,-1.375 3.32813,-1.375 1.98437,0 3.23437,1.34375 1.25,1.34375 1.25,3.79688 0,0.14062 -0.0156,0.4375 l -7.34375,0 q 0.0937,1.625 0.92187,2.48437 0.82813,0.85938 2.0625,0.85938 0.90625,0 1.54688,-0.46875 0.65625,-0.48438 1.04687,-1.54688 z m -5.48437,-2.70312 5.5,0 q -0.10938,-1.23438 -0.625,-1.85938 -0.79688,-0.96875 -2.07813,-0.96875 -1.14062,0 -1.9375,0.78125 -0.78125,0.76563 -0.85937,2.04688 z m 15.54759,4.65625 q -0.9375,0.79687 -1.79688,1.125 -0.85937,0.3125 -1.84375,0.3125 -1.60937,0 -2.48437,-0.78125 -0.875,-0.79688 -0.875,-2.03125 0,-0.73438 0.32812,-1.32813 0.32813,-0.59375 0.85938,-0.95312 0.53125,-0.35938 1.20312,-0.54688 0.5,-0.14062 1.48438,-0.25 2.03125,-0.25 2.98437,-0.57812 0,-0.34375 0,-0.4375 0,-1.01563 -0.46875,-1.4375 -0.64062,-0.5625 -1.90625,-0.5625 -1.17187,0 -1.73437,0.40625 -0.5625,0.40625 -0.82813,1.46875 L 33.81741,39.8731 q 0.23437,-1.04687 0.73437,-1.6875 0.51563,-0.64062 1.46875,-0.98437 0.96875,-0.35938 2.25,-0.35938 1.26563,0 2.04688,0.29688 0.78125,0.29687 1.15625,0.75 0.375,0.45312 0.51562,1.14062 0.0937,0.42188 0.0937,1.53125 l 0,2.23438 q 0,2.32812 0.0937,2.95312 0.10938,0.60938 0.4375,1.17188 l -1.75,0 q -0.26562,-0.51563 -0.32812,-1.21875 z m -0.14063,-3.71875 q -0.90625,0.35937 -2.73437,0.625 -1.03125,0.14062 -1.45313,0.32812 -0.42187,0.1875 -0.65625,0.54688 -0.23437,0.35937 -0.23437,0.79687 0,0.67188 0.5,1.125 0.51562,0.4375 1.48437,0.4375 0.96875,0 1.71875,-0.42187 0.75,-0.4375 1.10938,-1.15625 0.26562,-0.57813 0.26562,-1.67188 l 0,-0.60937 z m 4.07885,8.71875 0,-13.64063 1.53125,0 0,1.28125 q 0.53125,-0.75 1.20312,-1.125 0.6875,-0.375 1.64063,-0.375 1.26562,0 2.23437,0.65625 0.96875,0.64063 1.45313,1.82813 0.5,1.1875 0.5,2.59375 0,1.51562 -0.54688,2.73437 -0.54687,1.20313 -1.57812,1.84375 -1.03125,0.64063 -2.17188,0.64063 -0.84375,0 -1.51562,-0.34375 -0.65625,-0.35938 -1.07813,-0.89063 l 0,4.79688 -1.67187,0 z M 45.99,42.04498 q 0,1.90625 0.76563,2.8125 0.78125,0.90625 1.875,0.90625 1.10937,0 1.89062,-0.9375 0.79688,-0.9375 0.79688,-2.92188 0,-1.875 -0.78125,-2.8125 -0.76563,-0.9375 -1.84375,-0.9375 -1.0625,0 -1.89063,1 -0.8125,1 -0.8125,2.89063 z" />
  <path
     style="fill:#000000;fill-opacity:0;fill-rule:nonzero"
     inkscape:connector-curvature="0"
     id="path39"
     d="m 400,16 40,0 0,40 -40,0 z" />
  <path
     style="fill:#000000;fill-rule:nonzero"
     inkscape:connector-curvature="0"
     id="path41"
     d="m 410.71875,42.91998 0,-1.90625 1.90625,0 0,1.90625 -1.90625,0 z m 5.18329,0 0,-1.90625 1.90625,0 0,1.90625 -1.90625,0 z m 5.18329,0 0,-1.90625 1.90625,0 0,1.90625 -1.90625,0 z" />
  <path
     style="fill:#666666;fill-rule:nonzero"
     inkscape:connector-curvature="0"
     id="path43"
     d="m 144,50.50113 0,0 C 144,44.70151 148.70151,40 154.50113,40 l 42.99774,0 0,0 c 2.78506,0 5.45608,1.10635 7.42541,3.07571 C 206.89364,45.04504 208,47.71607 208,50.50113 l 0,10.99774 0,0 C 208,67.29849 203.29849,72 197.49887,72 l -42.99774,0 C 148.70151,72 144,67.29849 144,61.49887 z" />
  <path
     style="stroke:#000000;stroke-width:2;stroke-linecap:butt;stroke-linejoin:round"
     inkscape:connector-curvature="0"
     id="path45"
     d="m 144,50.50113 0,0 C 144,44.70151 148.70151,40 154.50113,40 l 42.99774,0 0,0 c 2.78506,0 5.45608,1.10635 7.42541,3.07571 C 206.89364,45.04504 208,47.71607 208,50.50113 l 0,10.99774 0,0 C 208,67.29849 203.29849,72 197.49887,72 l -42.99774,0 C 148.70151,72 144,67.29849 144,61.49887 z" />
  <path
     style="fill:#efefef;fill-rule:nonzero"
     inkscape:connector-curvature="0"
     id="path47"
     d="m 208,50.50113 0,0 C 208,44.70151 212.70151,40 218.50113,40 l 42.99774,0 0,0 c 2.78506,0 5.45608,1.10635 7.42541,3.07571 C 270.89364,45.04504 272,47.71607 272,50.50113 l 0,10.99774 0,0 C 272,67.29849 267.29849,72 261.49887,72 l -42.99774,0 C 212.70151,72 208,67.29849 208,61.49887 z" />
  <path
     style="stroke:#000000;stroke-width:2;stroke-linecap:butt;stroke-linejoin:round"
     inkscape:connector-curvature="0"
     id="path49"
     d="m 208,50.50113 0,0 C 208,44.70151 212.70151,40 218.50113,40 l 42.99774,0 0,0 c 2.78506,0 5.45608,1.10635 7.42541,3.07571 C 270.89364,45.04504 272,47.71607 272,50.50113 l 0,10.99774 0,0 C 272,67.29849 267.29849,72 261.49887,72 l -42.99774,0 C 212.70151,72 208,67.29849 208,61.49887 z" />
  <path
     style="fill:#666666;fill-rule:nonzero"
     inkscape:connector-curvature="0"
     id="path51"
     d="m 272,45.25055 0,0 C 272,42.35077 274.35077,40 277.25055,40 l 5.4989,0 0,0 c 1.39252,0 2.72803,0.55319 3.71271,1.53784 C 287.44681,42.52252 288,43.85803 288,45.25055 l 0,21.4989 C 288,69.64923 285.64923,72 282.74945,72 l -5.4989,0 C 274.35077,72 272,69.64923 272,66.74945 z" />
  <path
     style="stroke:#000000;stroke-width:2;stroke-linecap:butt;stroke-linejoin:round"
     inkscape:connector-curvature="0"
     id="path53"
     d="m 272,45.25055 0,0 C 272,42.35077 274.35077,40 277.25055,40 l 5.4989,0 0,0 c 1.39252,0 2.72803,0.55319 3.71271,1.53784 C 287.44681,42.52252 288,43.85803 288,45.25055 l 0,21.4989 C 288,69.64923 285.64923,72 282.74945,72 l -5.4989,0 C 274.35077,72 272,69.64923 272,66.74945 z" />
  <path
     style="fill:#666666;fill-rule:nonzero"
     inkscape:connector-curvature="0"
     id="path55"
     d="m 288,45.25055 0,0 C 288,42.35077 290.35077,40 293.25055,40 l 5.4989,0 0,0 c 1.39252,0 2.72803,0.55319 3.71271,1.53784 C 303.44681,42.52252 304,43.85803 304,45.25055 l 0,21.4989 C 304,69.64923 301.64923,72 298.74945,72 l -5.4989,0 C 290.35077,72 288,69.64923 288,66.74945 z" />
  <path
     style="stroke:#000000;stroke-width:2;stroke-linecap:butt;stroke-linejoin:round"
     inkscape:connector-curvature="0"
     id="path57"
     d="m 288,45.25055 0,0 C 288,42.35077 290.35077,40 293.25055,40 l 5.4989,0 0,0 c 1.39252,0 2.72803,0.55319 3.71271,1.53784 C 303.44681,42.52252 304,43.85803 304,45.25055 l 0,21.4989 C 304,69.64923 301.64923,72 298.74945,72 l -5.4989,0 C 290.35077,72 288,69.64923 288,66.74945 z" />
  <path
     style="fill:#efefef;fill-rule:nonzero"
     inkscape:connector-curvature="0"
     id="path59"
     d="m 304,45.25055 0,0 C 304,42.35077 306.35077,40 309.25055,40 l 5.4989,0 0,0 c 1.39252,0 2.72803,0.55319 3.71271,1.53784 C 319.44681,42.52252 320,43.85803 320,45.25055 l 0,21.4989 C 320,69.64923 317.64923,72 314.74945,72 l -5.4989,0 C 306.35077,72 304,69.64923 304,66.74945 z" />
  <path
     style="stroke:#000000;stroke-width:2;stroke-linecap:butt;stroke-linejoin:round"
     inkscape:connector-curvature="0"
     id="path61"
     d="m 304,45.25055 0,0 C 304,42.35077 306.35077,40 309.25055,40 l 5.4989,0 0,0 c 1.39252,0 2.72803,0.55319 3.71271,1.53784 C 319.44681,42.52252 320,43.85803 320,45.25055 l 0,21.4989 C 320,69.64923 317.64923,72 314.74945,72 l -5.4989,0 C 306.35077,72 304,69.64923 304,66.74945 z" />
  <path
     style="fill:#efefef;fill-rule:nonzero"
     inkscape:connector-curvature="0"
     id="path63"
     d="m 320,45.25055 0,0 C 320,42.35077 322.35077,40 325.25055,40 l 5.4989,0 0,0 c 1.39252,0 2.72803,0.55319 3.71271,1.53784 C 335.44681,42.52252 336,43.85803 336,45.25055 l 0,21.4989 C 336,69.64923 333.64923,72 330.74945,72 l -5.4989,0 C 322.35077,72 320,69.64923 320,66.74945 z" />
  <path
     style="stroke:#000000;stroke-width:2;stroke-linecap:butt;stroke-linejoin:round"
     inkscape:connector-curvature="0"
     id="path65"
     d="m 320,45.25055 0,0 C 320,42.35077 322.35077,40 325.25055,40 l 5.4989,0 0,0 c 1.39252,0 2.72803,0.55319 3.71271,1.53784 C 335.44681,42.52252 336,43.85803 336,45.25055 l 0,21.4989 C 336,69.64923 333.64923,72 330.74945,72 l -5.4989,0 C 322.35077,72 320,69.64923 320,66.74945 z" />
  <path
     style="fill:#666666;fill-rule:nonzero"
     inkscape:connector-curvature="0"
     id="path67"
     d="m 336,45.25055 0,0 C 336,42.35077 338.35077,40 341.25055,40 l 5.4989,0 0,0 c 1.39252,0 2.72803,0.55319 3.71271,1.53784 C 351.44681,42.52252 352,43.85803 352,45.25055 l 0,21.4989 C 352,69.64923 349.64923,72 346.74945,72 l -5.4989,0 C 338.35077,72 336,69.64923 336,66.74945 z" />
  <path
     style="stroke:#000000;stroke-width:2;stroke-linecap:butt;stroke-linejoin:round"
     inkscape:connector-curvature="0"
     id="path69"
     d="m 336,45.25055 0,0 C 336,42.35077 338.35077,40 341.25055,40 l 5.4989,0 0,0 c 1.39252,0 2.72803,0.55319 3.71271,1.53784 C 351.44681,42.52252 352,43.85803 352,45.25055 l 0,21.4989 C 352,69.64923 349.64923,72 346.74945,72 l -5.4989,0 C 338.35077,72 336,69.64923 336,66.74945 z" />
  <path
     style="fill:#efefef;fill-rule:nonzero"
     inkscape:connector-curvature="0"
     id="path71"
     d="m 352,45.25055 0,0 C 352,42.35077 354.35077,40 357.25055,40 l 5.4989,0 0,0 c 1.39252,0 2.72803,0.55319 3.71271,1.53784 C 367.44684,42.52252 368,43.85803 368,45.25055 l 0,21.4989 C 368,69.64923 365.64923,72 362.74945,72 l -5.4989,0 C 354.35077,72 352,69.64923 352,66.74945 z" />
  <path
     style="stroke:#000000;stroke-width:2;stroke-linecap:butt;stroke-linejoin:round"
     inkscape:connector-curvature="0"
     id="path73"
     d="m 352,45.25055 0,0 C 352,42.35077 354.35077,40 357.25055,40 l 5.4989,0 0,0 c 1.39252,0 2.72803,0.55319 3.71271,1.53784 C 367.44684,42.52252 368,43.85803 368,45.25055 l 0,21.4989 C 368,69.64923 365.64923,72 362.74945,72 l -5.4989,0 C 354.35077,72 352,69.64923 352,66.74945 z" />
  <path
     style="fill:#666666;fill-rule:nonzero"
     inkscape:connector-curvature="0"
     id="path75"
     d="m 368,45.25055 0,0 C 368,42.35077 370.35077,40 373.25055,40 l 5.4989,0 0,0 c 1.39252,0 2.72803,0.55319 3.71271,1.53784 C 383.44684,42.52252 384,43.85803 384,45.25055 l 0,21.4989 C 384,69.64923 381.64923,72 378.74945,72 l -5.4989,0 C 370.35077,72 368,69.64923 368,66.74945 z" />
  <path
     style="stroke:#000000;stroke-width:2;stroke-linecap:butt;stroke-linejoin:round"
     inkscape:connector-curvature="0"
     id="path77"
     d="m 368,45.25055 0,0 C 368,42.35077 370.35077,40 373.25055,40 l 5.4989,0 0,0 c 1.39252,0 2.72803,0.55319 3.71271,1.53784 C 383.44684,42.52252 384,43.85803 384,45.25055 l 0,21.4989 C 384,69.64923 381.64923,72 378.74945,72 l -5.4989,0 C 370.35077,72 368,69.64923 368,66.74945 z" />
  <path
     style="fill:#666666;fill-rule:nonzero"
     inkscape:connector-curvature="0"
     id="path79"
     d="m 384,45.25055 0,0 C 384,42.35077 386.35077,40 389.25055,40 l 5.4989,0 0,0 c 1.39252,0 2.72803,0.55319 3.71271,1.53784 C 399.44684,42.52252 400,43.85803 400,45.25055 l 0,21.4989 C 400,69.64923 397.64923,72 394.74945,72 l -5.4989,0 C 386.35077,72 384,69.64923 384,66.74945 z" />
  <path
     style="stroke:#000000;stroke-width:2;stroke-linecap:butt;stroke-linejoin:round"
     inkscape:connector-curvature="0"
     id="path81"
     d="m 384,45.25055 0,0 C 384,42.35077 386.35077,40 389.25055,40 l 5.4989,0 0,0 c 1.39252,0 2.72803,0.55319 3.71271,1.53784 C 399.44684,42.52252 400,43.85803 400,45.25055 l 0,21.4989 C 400,69.64923 397.64923,72 394.74945,72 l -5.4989,0 C 386.35077,72 384,69.64923 384,66.74945 z" />
  <path
     style="fill:#d9ead3;fill-rule:nonzero"
     inkscape:connector-curvature="0"
     id="path83"
     d="m 432,8 256,0 0,64 -256,0 z" />
  <path
     style="stroke:#000000;stroke-width:2;stroke-linecap:butt;stroke-linejoin:round"
     inkscape:connector-curvature="0"
     id="path85"
     d="m 432,8 256,0 0,64 -256,0 z" />
  <path
     style="fill:#000000;fill-opacity:0;fill-rule:nonzero"
     inkscape:connector-curvature="0"
     id="path87"
     d="m 432,0 88,0 0,40 -88,0 z" />
  <path
     style="fill:#000000;fill-rule:nonzero"
     inkscape:connector-curvature="0"
     id="path89"
     d="m 441.8594,22.54498 1.6875,-0.14063 q 0.125,1.01563 0.5625,1.67188 0.4375,0.65625 1.35938,1.0625 0.9375,0.40625 2.09375,0.40625 1.03125,0 1.8125,-0.3125 0.79687,-0.3125 1.1875,-0.84375 0.39062,-0.53125 0.39062,-1.15625 0,-0.64063 -0.375,-1.10938 -0.375,-0.48437 -1.23437,-0.8125 -0.54688,-0.21875 -2.42188,-0.65625 -1.875,-0.45312 -2.625,-0.85937 -0.96875,-0.51563 -1.45312,-1.26563 -0.46875,-0.75 -0.46875,-1.6875 0,-1.03125 0.57812,-1.92187 0.59375,-0.90625 1.70313,-1.35938 1.125,-0.46875 2.5,-0.46875 1.51562,0 2.67187,0.48438 1.15625,0.48437 1.76563,1.4375 0.625,0.9375 0.67187,2.14062 l -1.71875,0.125 q -0.14062,-1.28125 -0.95312,-1.9375 -0.79688,-0.67187 -2.35938,-0.67187 -1.625,0 -2.375,0.60937 -0.75,0.59375 -0.75,1.4375 0,0.73438 0.53125,1.20313 0.51563,0.46875 2.70313,0.96875 2.20312,0.5 3.01562,0.875 1.1875,0.54687 1.75,1.39062 0.57813,0.82813 0.57813,1.92188 0,1.09375 -0.625,2.0625 -0.625,0.95312 -1.79688,1.48437 -1.15625,0.53125 -2.60937,0.53125 -1.84375,0 -3.09375,-0.53125 -1.25,-0.54687 -1.96875,-1.625 -0.70313,-1.07812 -0.73438,-2.45312 z m 12.83423,8.15625 0,-13.64063 1.53125,0 0,1.28125 q 0.53125,-0.75 1.20312,-1.125 0.6875,-0.375 1.64063,-0.375 1.26562,0 2.23437,0.65625 0.96875,0.64063 1.45313,1.82813 0.5,1.1875 0.5,2.59375 0,1.51562 -0.54688,2.73437 -0.54687,1.20313 -1.57812,1.84375 -1.03125,0.64063 -2.17188,0.64063 -0.84375,0 -1.51562,-0.34375 -0.65625,-0.35938 -1.07813,-0.89063 l 0,4.79688 -1.67187,0 z m 1.51562,-8.65625 q 0,1.90625 0.76563,2.8125 0.78125,0.90625 1.875,0.90625 1.10937,0 1.89062,-0.9375 0.79688,-0.9375 0.79688,-2.92188 0,-1.875 -0.78125,-2.8125 -0.76563,-0.9375 -1.84375,-0.9375 -1.0625,0 -1.89063,1 -0.8125,1 -0.8125,2.89063 z m 15.29755,3.65625 q -0.9375,0.79687 -1.79688,1.125 -0.85937,0.3125 -1.84375,0.3125 -1.60937,0 -2.48437,-0.78125 -0.875,-0.79688 -0.875,-2.03125 0,-0.73438 0.32812,-1.32813 0.32813,-0.59375 0.85938,-0.95312 0.53125,-0.35938 1.20312,-0.54688 0.5,-0.14062 1.48438,-0.25 2.03125,-0.25 2.98437,-0.57812 0,-0.34375 0,-0.4375 0,-1.01563 -0.46875,-1.4375 -0.64062,-0.5625 -1.90625,-0.5625 -1.17187,0 -1.73437,0.40625 -0.5625,0.40625 -0.82813,1.46875 l -1.64062,-0.23438 q 0.23437,-1.04687 0.73437,-1.6875 0.51563,-0.64062 1.46875,-0.98437 0.96875,-0.35938 2.25,-0.35938 1.26563,0 2.04688,0.29688 0.78125,0.29687 1.15625,0.75 0.375,0.45312 0.51562,1.14062 0.0937,0.42188 0.0937,1.53125 l 0,2.23438 q 0,2.32812 0.0937,2.95312 0.10938,0.60938 0.4375,1.17188 l -1.75,0 q -0.26562,-0.51563 -0.32812,-1.21875 z m -0.14063,-3.71875 q -0.90625,0.35937 -2.73437,0.625 -1.03125,0.14062 -1.45313,0.32812 -0.42187,0.1875 -0.65625,0.54688 -0.23437,0.35937 -0.23437,0.79687 0,0.67188 0.5,1.125 0.51562,0.4375 1.48437,0.4375 0.96875,0 1.71875,-0.42187 0.75,-0.4375 1.10938,-1.15625 0.26562,-0.57813 0.26562,-1.67188 l 0,-0.60937 z m 4.07886,4.9375 0,-9.85938 1.5,0 0,1.40625 q 1.09375,-1.625 3.14063,-1.625 0.89062,0 1.64062,0.32813 0.75,0.3125 1.10938,0.84375 0.375,0.51562 0.53125,1.21875 0.0937,0.46875 0.0937,1.625 l 0,6.0625 -1.67188,0 0,-6 q 0,-1.01563 -0.20312,-1.51563 -0.1875,-0.51562 -0.6875,-0.8125 -0.5,-0.29687 -1.17188,-0.29687 -1.0625,0 -1.84375,0.67187 -0.76562,0.67188 -0.76562,2.57813 l 0,5.375 -1.67188,0 z m 15.76215,0 0,-13.59375 1.84375,0 7.14062,10.67187 0,-10.67187 1.71875,0 0,13.59375 -1.84375,0 -7.14062,-10.6875 0,10.6875 -1.71875,0 z" />
  <path
     style="fill:#000000;fill-opacity:0;fill-rule:nonzero"
     inkscape:connector-curvature="0"
     id="path91"
     d="m 560,8 0,64" />
  <path
     style="stroke:#000000;stroke-width:2;stroke-linecap:butt;stroke-linejoin:round"
     inkscape:connector-curvature="0"
     id="path93"
     d="m 560,8 0,64" />
  <path
     style="fill:#000000;fill-opacity:0;fill-rule:nonzero"
     inkscape:connector-curvature="0"
     id="path95"
     d="m 560,0 128,0 0,40 -128,0 z" />
  <path
     style="fill:#000000;fill-rule:nonzero"
     inkscape:connector-curvature="0"
     id="path97"
     d="m 569.8594,22.54498 1.6875,-0.14063 q 0.125,1.01563 0.5625,1.67188 0.4375,0.65625 1.35938,1.0625 0.9375,0.40625 2.09375,0.40625 1.03125,0 1.8125,-0.3125 0.79687,-0.3125 1.1875,-0.84375 0.39062,-0.53125 0.39062,-1.15625 0,-0.64063 -0.375,-1.10938 -0.375,-0.48437 -1.23437,-0.8125 -0.54688,-0.21875 -2.42188,-0.65625 -1.875,-0.45312 -2.625,-0.85937 -0.96875,-0.51563 -1.45312,-1.26563 -0.46875,-0.75 -0.46875,-1.6875 0,-1.03125 0.57812,-1.92187 0.59375,-0.90625 1.70313,-1.35938 1.125,-0.46875 2.5,-0.46875 1.51562,0 2.67187,0.48438 1.15625,0.48437 1.76563,1.4375 0.625,0.9375 0.67187,2.14062 l -1.71875,0.125 q -0.14062,-1.28125 -0.95312,-1.9375 -0.79688,-0.67187 -2.35938,-0.67187 -1.625,0 -2.375,0.60937 -0.75,0.59375 -0.75,1.4375 0,0.73438 0.53125,1.20313 0.51563,0.46875 2.70313,0.96875 2.20312,0.5 3.01562,0.875 1.1875,0.54687 1.75,1.39062 0.57813,0.82813 0.57813,1.92188 0,1.09375 -0.625,2.0625 -0.625,0.95312 -1.79688,1.48437 -1.15625,0.53125 -2.60937,0.53125 -1.84375,0 -3.09375,-0.53125 -1.25,-0.54687 -1.96875,-1.625 -0.70313,-1.07812 -0.73438,-2.45312 z m 12.83423,8.15625 0,-13.64063 1.53125,0 0,1.28125 q 0.53125,-0.75 1.20312,-1.125 0.6875,-0.375 1.64063,-0.375 1.26562,0 2.23437,0.65625 0.96875,0.64063 1.45313,1.82813 0.5,1.1875 0.5,2.59375 0,1.51562 -0.54688,2.73437 -0.54687,1.20313 -1.57812,1.84375 -1.03125,0.64063 -2.17188,0.64063 -0.84375,0 -1.51562,-0.34375 -0.65625,-0.35938 -1.07813,-0.89063 l 0,4.79688 -1.67187,0 z m 1.51562,-8.65625 q 0,1.90625 0.76563,2.8125 0.78125,0.90625 1.875,0.90625 1.10937,0 1.89062,-0.9375 0.79688,-0.9375 0.79688,-2.92188 0,-1.875 -0.78125,-2.8125 -0.76563,-0.9375 -1.84375,-0.9375 -1.0625,0 -1.89063,1 -0.8125,1 -0.8125,2.89063 z m 15.29755,3.65625 q -0.9375,0.79687 -1.79688,1.125 -0.85937,0.3125 -1.84375,0.3125 -1.60937,0 -2.48437,-0.78125 -0.875,-0.79688 -0.875,-2.03125 0,-0.73438 0.32812,-1.32813 0.32813,-0.59375 0.85938,-0.95312 0.53125,-0.35938 1.20312,-0.54688 0.5,-0.14062 1.48438,-0.25 2.03125,-0.25 2.98437,-0.57812 0,-0.34375 0,-0.4375 0,-1.01563 -0.46875,-1.4375 -0.64062,-0.5625 -1.90625,-0.5625 -1.17187,0 -1.73437,0.40625 -0.5625,0.40625 -0.82813,1.46875 l -1.64062,-0.23438 q 0.23437,-1.04687 0.73437,-1.6875 0.51563,-0.64062 1.46875,-0.98437 0.96875,-0.35938 2.25,-0.35938 1.26563,0 2.04688,0.29688 0.78125,0.29687 1.15625,0.75 0.375,0.45312 0.51562,1.14062 0.0937,0.42188 0.0937,1.53125 l 0,2.23438 q 0,2.32812 0.0937,2.95312 0.10938,0.60938 0.4375,1.17188 l -1.75,0 q -0.26562,-0.51563 -0.32812,-1.21875 z m -0.14063,-3.71875 q -0.90625,0.35937 -2.73437,0.625 -1.03125,0.14062 -1.45313,0.32812 -0.42187,0.1875 -0.65625,0.54688 -0.23437,0.35937 -0.23437,0.79687 0,0.67188 0.5,1.125 0.51562,0.4375 1.48437,0.4375 0.96875,0 1.71875,-0.42187 0.75,-0.4375 1.10938,-1.15625 0.26562,-0.57813 0.26562,-1.67188 l 0,-0.60937 z m 4.07886,4.9375 0,-9.85938 1.5,0 0,1.40625 q 1.09375,-1.625 3.14063,-1.625 0.89062,0 1.64062,0.32813 0.75,0.3125 1.10938,0.84375 0.375,0.51562 0.53125,1.21875 0.0937,0.46875 0.0937,1.625 l 0,6.0625 -1.67188,0 0,-6 q 0,-1.01563 -0.20312,-1.51563 -0.1875,-0.51562 -0.6875,-0.8125 -0.5,-0.29687 -1.17188,-0.29687 -1.0625,0 -1.84375,0.67187 -0.76562,0.67188 -0.76562,2.57813 l 0,5.375 -1.67188,0 z m 15.76215,0 0,-13.59375 1.84375,0 7.14062,10.67187 0,-10.67187 1.71875,0 0,13.59375 -1.84375,0 -7.14062,-10.6875 0,10.6875 -1.71875,0 z m 16.78546,-2.20313 0,-3.71875 -3.70313,0 0,-1.5625 3.70313,0 0,-3.70312 1.57812,0 0,3.70312 3.6875,0 0,1.5625 -3.6875,0 0,3.71875 -1.57812,0 z m 13.20746,2.20313 -1.67188,0 0,-10.64063 q -0.59375,0.57813 -1.57812,1.15625 -0.98438,0.5625 -1.76563,0.85938 l 0,-1.625 q 1.40625,-0.65625 2.45313,-1.59375 1.04687,-0.9375 1.48437,-1.8125 l 1.07813,0 0,13.65625 z" />
  <path
     style="fill:#666666;fill-rule:nonzero"
     inkscape:connector-curvature="0"
     id="path99"
     d="m 432,50.50113 0,0 C 432,44.70151 436.70154,40 442.5011,40 l 10.9978,0 0,0 c 2.78504,0 5.45606,1.10635 7.42542,3.07571 1.9693,1.96933 3.07568,4.64036 3.07568,7.42542 l 0,10.99774 0,0 C 464,67.29849 459.29846,72 453.4989,72 l -10.9978,0 C 436.70154,72 432,67.29849 432,61.49887 z" />
  <path
     style="stroke:#000000;stroke-width:2;stroke-linecap:butt;stroke-linejoin:round"
     inkscape:connector-curvature="0"
     id="path101"
     d="m 432,50.50113 0,0 C 432,44.70151 436.70154,40 442.5011,40 l 10.9978,0 0,0 c 2.78504,0 5.45606,1.10635 7.42542,3.07571 1.9693,1.96933 3.07568,4.64036 3.07568,7.42542 l 0,10.99774 0,0 C 464,67.29849 459.29846,72 453.4989,72 l -10.9978,0 C 436.70154,72 432,67.29849 432,61.49887 z" />
  <path
     style="fill:#efefef;fill-rule:nonzero"
     inkscape:connector-curvature="0"
     id="path103"
     d="m 528,50.50113 0,0 C 528,44.70151 532.70154,40 538.5011,40 l 10.9978,0 0,0 c 2.78504,0 5.45606,1.10635 7.42542,3.07571 1.9693,1.96933 3.07568,4.64036 3.07568,7.42542 l 0,10.99774 0,0 C 560,67.29849 555.29846,72 549.4989,72 l -10.9978,0 C 532.70154,72 528,67.29849 528,61.49887 z" />
  <path
     style="stroke:#000000;stroke-width:2;stroke-linecap:butt;stroke-linejoin:round"
     inkscape:connector-curvature="0"
     id="path105"
     d="m 528,50.50113 0,0 C 528,44.70151 532.70154,40 538.5011,40 l 10.9978,0 0,0 c 2.78504,0 5.45606,1.10635 7.42542,3.07571 1.9693,1.96933 3.07568,4.64036 3.07568,7.42542 l 0,10.99774 0,0 C 560,67.29849 555.29846,72 549.4989,72 l -10.9978,0 C 532.70154,72 528,67.29849 528,61.49887 z" />
  <path
     style="fill:#666666;fill-rule:nonzero"
     inkscape:connector-curvature="0"
     id="path107"
     d="m 560,45.25055 0,0 C 560,42.35077 562.35077,40 565.25055,40 l 5.4989,0 0,0 c 1.39252,0 2.72803,0.55319 3.71271,1.53784 C 575.44684,42.52252 576,43.85803 576,45.25055 l 0,21.4989 C 576,69.64923 573.64923,72 570.74945,72 l -5.4989,0 C 562.35077,72 560,69.64923 560,66.74945 z" />
  <path
     style="stroke:#000000;stroke-width:2;stroke-linecap:butt;stroke-linejoin:round"
     inkscape:connector-curvature="0"
     id="path109"
     d="m 560,45.25055 0,0 C 560,42.35077 562.35077,40 565.25055,40 l 5.4989,0 0,0 c 1.39252,0 2.72803,0.55319 3.71271,1.53784 C 575.44684,42.52252 576,43.85803 576,45.25055 l 0,21.4989 C 576,69.64923 573.64923,72 570.74945,72 l -5.4989,0 C 562.35077,72 560,69.64923 560,66.74945 z" />
  <path
     style="fill:#efefef;fill-rule:nonzero"
     inkscape:connector-curvature="0"
     id="path111"
     d="m 576,45.25055 0,0 C 576,42.35077 578.35077,40 581.25055,40 l 5.4989,0 0,0 c 1.39252,0 2.72803,0.55319 3.71271,1.53784 C 591.44684,42.52252 592,43.85803 592,45.25055 l 0,21.4989 C 592,69.64923 589.64923,72 586.74945,72 l -5.4989,0 C 578.35077,72 576,69.64923 576,66.74945 z" />
  <path
     style="stroke:#000000;stroke-width:2;stroke-linecap:butt;stroke-linejoin:round"
     inkscape:connector-curvature="0"
     id="path113"
     d="m 576,45.25055 0,0 C 576,42.35077 578.35077,40 581.25055,40 l 5.4989,0 0,0 c 1.39252,0 2.72803,0.55319 3.71271,1.53784 C 591.44684,42.52252 592,43.85803 592,45.25055 l 0,21.4989 C 592,69.64923 589.64923,72 586.74945,72 l -5.4989,0 C 578.35077,72 576,69.64923 576,66.74945 z" />
  <path
     style="fill:#efefef;fill-rule:nonzero"
     inkscape:connector-curvature="0"
     id="path115"
     d="m 592,45.25055 0,0 C 592,42.35077 594.35077,40 597.25055,40 l 5.4989,0 0,0 c 1.39252,0 2.72803,0.55319 3.71271,1.53784 C 607.44684,42.52252 608,43.85803 608,45.25055 l 0,21.4989 C 608,69.64923 605.64923,72 602.74945,72 l -5.4989,0 C 594.35077,72 592,69.64923 592,66.74945 z" />
  <path
     style="stroke:#000000;stroke-width:2;stroke-linecap:butt;stroke-linejoin:round"
     inkscape:connector-curvature="0"
     id="path117"
     d="m 592,45.25055 0,0 C 592,42.35077 594.35077,40 597.25055,40 l 5.4989,0 0,0 c 1.39252,0 2.72803,0.55319 3.71271,1.53784 C 607.44684,42.52252 608,43.85803 608,45.25055 l 0,21.4989 C 608,69.64923 605.64923,72 602.74945,72 l -5.4989,0 C 594.35077,72 592,69.64923 592,66.74945 z" />
  <path
     style="fill:#efefef;fill-rule:nonzero"
     inkscape:connector-curvature="0"
     id="path119"
     d="m 608,45.25055 0,0 C 608,42.35077 610.35077,40 613.25055,40 l 5.4989,0 0,0 c 1.39252,0 2.72803,0.55319 3.71271,1.53784 C 623.44684,42.52252 624,43.85803 624,45.25055 l 0,21.4989 C 624,69.64923 621.64923,72 618.74945,72 l -5.4989,0 C 610.35077,72 608,69.64923 608,66.74945 z" />
  <path
     style="stroke:#000000;stroke-width:2;stroke-linecap:butt;stroke-linejoin:round"
     inkscape:connector-curvature="0"
     id="path121"
     d="m 608,45.25055 0,0 C 608,42.35077 610.35077,40 613.25055,40 l 5.4989,0 0,0 c 1.39252,0 2.72803,0.55319 3.71271,1.53784 C 623.44684,42.52252 624,43.85803 624,45.25055 l 0,21.4989 C 624,69.64923 621.64923,72 618.74945,72 l -5.4989,0 C 610.35077,72 608,69.64923 608,66.74945 z" />
  <path
     style="fill:#efefef;fill-rule:nonzero"
     inkscape:connector-curvature="0"
     id="path123"
     d="m 624,45.25055 0,0 C 624,42.35077 626.35077,40 629.25055,40 l 5.4989,0 0,0 c 1.39252,0 2.72803,0.55319 3.71271,1.53784 C 639.44684,42.52252 640,43.85803 640,45.25055 l 0,21.4989 C 640,69.64923 637.64923,72 634.74945,72 l -5.4989,0 C 626.35077,72 624,69.64923 624,66.74945 z" />
  <path
     style="stroke:#000000;stroke-width:2;stroke-linecap:butt;stroke-linejoin:round"
     inkscape:connector-curvature="0"
     id="path125"
     d="m 624,45.25055 0,0 C 624,42.35077 626.35077,40 629.25055,40 l 5.4989,0 0,0 c 1.39252,0 2.72803,0.55319 3.71271,1.53784 C 639.44684,42.52252 640,43.85803 640,45.25055 l 0,21.4989 C 640,69.64923 637.64923,72 634.74945,72 l -5.4989,0 C 626.35077,72 624,69.64923 624,66.74945 z" />
  <path
     style="fill:#efefef;fill-rule:nonzero"
     inkscape:connector-curvature="0"
     id="path127"
     d="m 640,45.25055 0,0 C 640,42.35077 642.35077,40 645.25055,40 l 5.4989,0 0,0 c 1.39252,0 2.72803,0.55319 3.71271,1.53784 C 655.44684,42.52252 656,43.85803 656,45.25055 l 0,21.4989 C 656,69.64923 653.64923,72 650.74945,72 l -5.4989,0 C 642.35077,72 640,69.64923 640,66.74945 z" />
  <path
     style="stroke:#000000;stroke-width:2;stroke-linecap:butt;stroke-linejoin:round"
     inkscape:connector-curvature="0"
     id="path129"
     d="m 640,45.25055 0,0 C 640,42.35077 642.35077,40 645.25055,40 l 5.4989,0 0,0 c 1.39252,0 2.72803,0.55319 3.71271,1.53784 C 655.44684,42.52252 656,43.85803 656,45.25055 l 0,21.4989 C 656,69.64923 653.64923,72 650.74945,72 l -5.4989,0 C 642.35077,72 640,69.64923 640,66.74945 z" />
  <path
     style="fill:#000000;fill-opacity:0;fill-rule:nonzero"
     inkscape:connector-curvature="0"
     id="path131"
     d="m 688,8 0,64" />
  <path
     style="stroke:#000000;stroke-width:2;stroke-linecap:butt;stroke-linejoin:round"
     inkscape:connector-curvature="0"
     id="path133"
     d="m 688,8 0,64" />
  <path
     style="fill:#666666;fill-rule:nonzero"
     inkscape:connector-curvature="0"
     id="path135"
     d="m 656,45.25055 0,0 C 656,42.35077 658.35077,40 661.25055,40 l 5.4989,0 0,0 c 1.39252,0 2.72803,0.55319 3.71271,1.53784 C 671.44684,42.52252 672,43.85803 672,45.25055 l 0,21.4989 C 672,69.64923 669.64923,72 666.74945,72 l -5.4989,0 C 658.35077,72 656,69.64923 656,66.74945 z" />
  <path
     style="stroke:#000000;stroke-width:2;stroke-linecap:butt;stroke-linejoin:round"
     inkscape:connector-curvature="0"
     id="path137"
     d="m 656,45.25055 0,0 C 656,42.35077 658.35077,40 661.25055,40 l 5.4989,0 0,0 c 1.39252,0 2.72803,0.55319 3.71271,1.53784 C 671.44684,42.52252 672,43.85803 672,45.25055 l 0,21.4989 C 672,69.64923 669.64923,72 666.74945,72 l -5.4989,0 C 658.35077,72 656,69.64923 656,66.74945 z" />
  <path
     style="fill:#cfe2f3;fill-rule:nonzero"
     inkscape:connector-curvature="0"
     id="path139"
     d="m 288,128 16,0 0,24 -16,0 z" />
  <path
     style="stroke:#000000;stroke-width:2;stroke-linecap:butt;stroke-linejoin:round"
     inkscape:connector-curvature="0"
     id="path141"
     d="m 288,128 16,0 0,24 -16,0 z" />
  <path
     style="fill:#666666;fill-rule:nonzero"
     inkscape:connector-curvature="0"
     id="path143"
     d="m 672,45.25055 0,0 C 672,42.35077 674.35077,40 677.25055,40 l 5.4989,0 0,0 c 1.39252,0 2.72803,0.55319 3.71271,1.53784 C 687.44684,42.52252 688,43.85803 688,45.25055 l 0,21.4989 C 688,69.64923 685.64923,72 682.74945,72 l -5.4989,0 C 674.35077,72 672,69.64923 672,66.74945 z" />
  <path
     style="stroke:#000000;stroke-width:2;stroke-linecap:butt;stroke-linejoin:round"
     inkscape:connector-curvature="0"
     id="path145"
     d="m 672,45.25055 0,0 C 672,42.35077 674.35077,40 677.25055,40 l 5.4989,0 0,0 c 1.39252,0 2.72803,0.55319 3.71271,1.53784 C 687.44684,42.52252 688,43.85803 688,45.25055 l 0,21.4989 C 688,69.64923 685.64923,72 682.74945,72 l -5.4989,0 C 674.35077,72 672,69.64923 672,66.74945 z" />
  <path
     style="fill:#cfe2f3;fill-rule:nonzero"
     inkscape:connector-curvature="0"
     id="path147"
     d="m 176,128 8,0 0,24 -8,0 z" />
  <path
     style="stroke:#000000;stroke-width:2;stroke-linecap:butt;stroke-linejoin:round"
     inkscape:connector-curvature="0"
     id="path149"
     d="m 176,128 8,0 0,24 -8,0 z" />
  <path
     style="fill:#666666;fill-rule:nonzero"
     inkscape:connector-curvature="0"
     id="path151"
     d="m 464,50.50113 0,0 C 464,44.70151 468.70154,40 474.5011,40 l 10.9978,0 0,0 c 2.78504,0 5.45606,1.10635 7.42542,3.07571 1.9693,1.96933 3.07568,4.64036 3.07568,7.42542 l 0,10.99774 0,0 C 496,67.29849 491.29846,72 485.4989,72 l -10.9978,0 C 468.70154,72 464,67.29849 464,61.49887 z" />
  <path
     style="stroke:#000000;stroke-width:2;stroke-linecap:butt;stroke-linejoin:round"
     inkscape:connector-curvature="0"
     id="path153"
     d="m 464,50.50113 0,0 C 464,44.70151 468.70154,40 474.5011,40 l 10.9978,0 0,0 c 2.78504,0 5.45606,1.10635 7.42542,3.07571 1.9693,1.96933 3.07568,4.64036 3.07568,7.42542 l 0,10.99774 0,0 C 496,67.29849 491.29846,72 485.4989,72 l -10.9978,0 C 468.70154,72 464,67.29849 464,61.49887 z" />
  <path
     style="fill:#c9daf8;fill-rule:nonzero"
     inkscape:connector-curvature="0"
     id="path155"
     d="m 144,120 256,0 0,40 -256,0 z" />
  <path
     style="stroke:#000000;stroke-width:2;stroke-linecap:butt;stroke-linejoin:round"
     inkscape:connector-curvature="0"
     id="path157"
     d="m 144,120 256,0 0,40 -256,0 z" />
  <path
     style="fill:#666666;fill-rule:nonzero"
     inkscape:connector-curvature="0"
     id="path159"
     d="m 496,50.50113 0,0 C 496,44.70151 500.70154,40 506.5011,40 l 10.9978,0 0,0 c 2.78504,0 5.45606,1.10635 7.42542,3.07571 1.9693,1.96933 3.07568,4.64036 3.07568,7.42542 l 0,10.99774 0,0 C 528,67.29849 523.29846,72 517.4989,72 l -10.9978,0 C 500.70154,72 496,67.29849 496,61.49887 z" />
  <path
     style="stroke:#000000;stroke-width:2;stroke-linecap:butt;stroke-linejoin:round"
     inkscape:connector-curvature="0"
     id="path161"
     d="m 496,50.50113 0,0 C 496,44.70151 500.70154,40 506.5011,40 l 10.9978,0 0,0 c 2.78504,0 5.45606,1.10635 7.42542,3.07571 1.9693,1.96933 3.07568,4.64036 3.07568,7.42542 l 0,10.99774 0,0 C 528,67.29849 523.29846,72 517.4989,72 l -10.9978,0 C 500.70154,72 496,67.29849 496,61.49887 z" />
  <path
     style="fill:#000000;fill-opacity:0;fill-rule:nonzero"
     inkscape:connector-curvature="0"
     id="path163"
     d="m 144,120 144,0 0,40 -144,0 z" />
  <path
     style="fill:#000000;fill-rule:nonzero"
     inkscape:connector-curvature="0"
     id="path165"
     d="m 160.07812,146.91998 -1.67187,0 0,-10.64063 q -0.59375,0.57813 -1.57813,1.15625 -0.98437,0.5625 -1.76562,0.85938 l 0,-1.625 q 1.40625,-0.65625 2.45312,-1.59375 1.04688,-0.9375 1.48438,-1.8125 l 1.07812,0 0,13.65625 z m 4.07886,-6.70313 q 0,-2.42187 0.5,-3.89062 0.5,-1.46875 1.46875,-2.26563 0.98437,-0.79687 2.46875,-0.79687 1.09375,0 1.92187,0.4375 0.82813,0.4375 1.35938,1.28125 0.54687,0.82812 0.84375,2.01562 0.3125,1.1875 0.3125,3.21875 0,2.39063 -0.5,3.85938 -0.48438,1.46875 -1.46875,2.28125 -0.96875,0.79687 -2.46875,0.79687 -1.96875,0 -3.07813,-1.40625 -1.35937,-1.70312 -1.35937,-5.53125 z m 1.71875,0 q 0,3.34375 0.78125,4.45313 0.79687,1.10937 1.9375,1.10937 1.15625,0 1.9375,-1.10937 0.78125,-1.125 0.78125,-4.45313 0,-3.35937 -0.78125,-4.46875 -0.78125,-1.10937 -1.95313,-1.10937 -1.15625,0 -1.82812,0.98437 -0.875,1.23438 -0.875,4.59375 z m 14.95382,6.70313 -1.67187,0 0,-10.64063 q -0.59375,0.57813 -1.57813,1.15625 -0.98437,0.5625 -1.76562,0.85938 l 0,-1.625 q 1.40625,-0.65625 2.45312,-1.59375 1.04688,-0.9375 1.48438,-1.8125 l 1.07812,0 0,13.65625 z m 10.37571,0 -1.67188,0 0,-10.64063 q -0.59375,0.57813 -1.57812,1.15625 -0.98438,0.5625 -1.76563,0.85938 l 0,-1.625 q 1.40625,-0.65625 2.45313,-1.59375 1.04687,-0.9375 1.48437,-1.8125 l 1.07813,0 0,13.65625 z m 4.07885,-6.70313 q 0,-2.42187 0.5,-3.89062 0.5,-1.46875 1.46875,-2.26563 0.98438,-0.79687 2.46875,-0.79687 1.09375,0 1.92188,0.4375 0.82812,0.4375 1.35937,1.28125 0.54688,0.82812 0.84375,2.01562 0.3125,1.1875 0.3125,3.21875 0,2.39063 -0.5,3.85938 -0.48437,1.46875 -1.46875,2.28125 -0.96875,0.79687 -2.46875,0.79687 -1.96875,0 -3.07812,-1.40625 -1.35938,-1.70312 -1.35938,-5.53125 z m 1.71875,0 q 0,3.34375 0.78125,4.45313 0.79688,1.10937 1.9375,1.10937 1.15625,0 1.9375,-1.10937 0.78125,-1.125 0.78125,-4.45313 0,-3.35937 -0.78125,-4.46875 -0.78125,-1.10937 -1.95312,-1.10937 -1.15625,0 -1.82813,0.98437 -0.875,1.23438 -0.875,4.59375 z m 8.65699,0 q 0,-2.42187 0.5,-3.89062 0.5,-1.46875 1.46875,-2.26563 0.98437,-0.79687 2.46875,-0.79687 1.09375,0 1.92187,0.4375 0.82813,0.4375 1.35938,1.28125 0.54687,0.82812 0.84375,2.01562 0.3125,1.1875 0.3125,3.21875 0,2.39063 -0.5,3.85938 -0.48438,1.46875 -1.46875,2.28125 -0.96875,0.79687 -2.46875,0.79687 -1.96875,0 -3.07813,-1.40625 -1.35937,-1.70312 -1.35937,-5.53125 z m 1.71875,0 q 0,3.34375 0.78125,4.45313 0.79687,1.10937 1.9375,1.10937 1.15625,0 1.9375,-1.10937 0.78125,-1.125 0.78125,-4.45313 0,-3.35937 -0.78125,-4.46875 -0.78125,-1.10937 -1.95313,-1.10937 -1.15625,0 -1.82812,0.98437 -0.875,1.23438 -0.875,4.59375 z m 14.95382,6.70313 -1.67187,0 0,-10.64063 q -0.59375,0.57813 -1.57813,1.15625 -0.98437,0.5625 -1.76562,0.85938 l 0,-1.625 q 1.40625,-0.65625 2.45312,-1.59375 1.04688,-0.9375 1.48438,-1.8125 l 1.07812,0 0,13.65625 z m 4.07883,-6.70313 q 0,-2.42187 0.5,-3.89062 0.5,-1.46875 1.46875,-2.26563 0.98437,-0.79687 2.46875,-0.79687 1.09375,0 1.92187,0.4375 0.82813,0.4375 1.35938,1.28125 0.54687,0.82812 0.84375,2.01562 0.3125,1.1875 0.3125,3.21875 0,2.39063 -0.5,3.85938 -0.48438,1.46875 -1.46875,2.28125 -0.96875,0.79687 -2.46875,0.79687 -1.96875,0 -3.07813,-1.40625 -1.35937,-1.70312 -1.35937,-5.53125 z m 1.71875,0 q 0,3.34375 0.78125,4.45313 0.79687,1.10937 1.9375,1.10937 1.15625,0 1.9375,-1.10937 0.78125,-1.125 0.78125,-4.45313 0,-3.35937 -0.78125,-4.46875 -0.78125,-1.10937 -1.95313,-1.10937 -1.15625,0 -1.82812,0.98437 -0.875,1.23438 -0.875,4.59375 z m 14.95386,6.70313 -1.67188,0 0,-10.64063 q -0.59375,0.57813 -1.57812,1.15625 -0.98438,0.5625 -1.76563,0.85938 l 0,-1.625 q 1.40625,-0.65625 2.45313,-1.59375 1.04687,-0.9375 1.48437,-1.8125 l 1.07813,0 0,13.65625 z m 10.37573,0 -1.67188,0 0,-10.64063 q -0.59375,0.57813 -1.57812,1.15625 -0.98438,0.5625 -1.76563,0.85938 l 0,-1.625 q 1.40625,-0.65625 2.45313,-1.59375 1.04687,-0.9375 1.48437,-1.8125 l 1.07813,0 0,13.65625 z" />
  <path
     style="fill:#000000;fill-opacity:0;fill-rule:nonzero"
     inkscape:connector-curvature="0"
     id="path167"
     d="m 0,120 144,0 0,40 -144,0 z" />
  <path
     style="fill:#000000;fill-rule:nonzero"
     inkscape:connector-curvature="0"
     id="path169"
     d="m 10.40625,146.91998 0,-13.59375 2.71875,0 3.21875,9.625 q 0.4375,1.34375 0.64062,2.01562 0.23438,-0.75 0.73438,-2.1875 l 3.25,-9.45312 2.42187,0 0,13.59375 -1.73437,0 0,-11.39063 -3.95313,11.39063 -1.625,0 -3.9375,-11.57813 0,11.57813 -1.73437,0 z m 21.82205,-1.21875 q -0.9375,0.79687 -1.79687,1.125 -0.85938,0.3125 -1.84375,0.3125 -1.60938,0 -2.48438,-0.78125 -0.875,-0.79688 -0.875,-2.03125 0,-0.73438 0.32813,-1.32813 0.32812,-0.59375 0.85937,-0.95312 0.53125,-0.35938 1.20313,-0.54688 0.5,-0.14062 1.48437,-0.25 2.03125,-0.25 2.98438,-0.57812 0,-0.34375 0,-0.4375 0,-1.01563 -0.46875,-1.4375 -0.64063,-0.5625 -1.90625,-0.5625 -1.17188,0 -1.73438,0.40625 -0.5625,0.40625 -0.82812,1.46875 l -1.64063,-0.23438 q 0.23438,-1.04687 0.73438,-1.6875 0.51562,-0.64062 1.46875,-0.98437 0.96875,-0.35938 2.25,-0.35938 1.26562,0 2.04687,0.29688 0.78125,0.29687 1.15625,0.75 0.375,0.45312 0.51563,1.14062 0.0937,0.42188 0.0937,1.53125 l 0,2.23438 q 0,2.32812 0.0937,2.95312 0.10937,0.60938 0.4375,1.17188 l -1.75,0 q -0.26563,-0.51563 -0.32813,-1.21875 z m -0.14062,-3.71875 q -0.90625,0.35937 -2.73438,0.625 -1.03125,0.14062 -1.45312,0.32812 -0.42188,0.1875 -0.65625,0.54688 -0.23438,0.35937 -0.23438,0.79687 0,0.67188 0.5,1.125 0.51563,0.4375 1.48438,0.4375 0.96875,0 1.71875,-0.42187 0.75,-0.4375 1.10937,-1.15625 0.26563,-0.57813 0.26563,-1.67188 l 0,-0.60937 z m 4.06321,4.9375 0,-9.85938 1.5,0 0,1.5 q 0.57813,-1.04687 1.0625,-1.375 0.48438,-0.34375 1.07813,-0.34375 0.84375,0 1.71875,0.54688 l -0.57813,1.54687 q -0.60937,-0.35937 -1.23437,-0.35937 -0.54688,0 -0.98438,0.32812 -0.42187,0.32813 -0.60937,0.90625 -0.28125,0.89063 -0.28125,1.95313 l 0,5.15625 -1.67188,0 z m 6.24393,0 0,-13.59375 1.67188,0 0,7.75 3.95312,-4.01563 2.15625,0 -3.76562,3.65625 4.14062,6.20313 -2.0625,0 -3.25,-5.03125 -1.17187,1.125 0,3.90625 -1.67188,0 z m 16.04268,0 -1.54688,0 0,-13.59375 1.65625,0 0,4.84375 q 1.0625,-1.32813 2.70313,-1.32813 0.90625,0 1.71875,0.375 0.8125,0.35938 1.32812,1.03125 0.53125,0.65625 0.82813,1.59375 0.29687,0.9375 0.29687,2 0,2.53125 -1.25,3.92188 -1.25,1.375 -3,1.375 -1.75,0 -2.73437,-1.45313 l 0,1.23438 z m -0.0156,-5 q 0,1.76562 0.46875,2.5625 0.79688,1.28125 2.14063,1.28125 1.09375,0 1.89062,-0.9375 0.79688,-0.95313 0.79688,-2.84375 0,-1.92188 -0.76563,-2.84375 -0.76562,-0.92188 -1.84375,-0.92188 -1.09375,0 -1.89062,0.95313 -0.79688,0.95312 -0.79688,2.75 z m 8.8601,-6.6875 0,-1.90625 1.67187,0 0,1.90625 -1.67187,0 z m 0,11.6875 0,-9.85938 1.67187,0 0,9.85938 -1.67187,0 z m 7.78544,-1.5 0.23438,1.48437 q -0.70313,0.14063 -1.26563,0.14063 -0.90625,0 -1.40625,-0.28125 -0.5,-0.29688 -0.70312,-0.75 -0.20313,-0.46875 -0.20313,-1.98438 l 0,-5.65625 -1.23437,0 0,-1.3125 1.23437,0 0,-2.4375 1.65625,-1 0,3.4375 1.6875,0 0,1.3125 -1.6875,0 0,5.75 q 0,0.71875 0.0781,0.92188 0.0937,0.20312 0.29687,0.32812 0.20313,0.125 0.57813,0.125 0.26562,0 0.73437,-0.0781 z m 1.52706,1.5 0,-9.85938 1.5,0 0,1.39063 q 0.45312,-0.71875 1.21875,-1.15625 0.78125,-0.45313 1.76562,-0.45313 1.09375,0 1.79688,0.45313 0.70312,0.45312 0.98437,1.28125 1.17188,-1.73438 3.04688,-1.73438 1.46875,0 2.25,0.8125 0.79687,0.8125 0.79687,2.5 l 0,6.76563 -1.67187,0 0,-6.20313 q 0,-1 -0.15625,-1.4375 -0.15625,-0.45312 -0.59375,-0.71875 -0.42188,-0.26562 -1,-0.26562 -1.03125,0 -1.71875,0.6875 -0.6875,0.6875 -0.6875,2.21875 l 0,5.71875 -1.67188,0 0,-6.40625 q 0,-1.10938 -0.40625,-1.65625 -0.40625,-0.5625 -1.34375,-0.5625 -0.70312,0 -1.3125,0.375 -0.59375,0.35937 -0.85937,1.07812 -0.26563,0.71875 -0.26563,2.0625 l 0,5.10938 -1.67187,0 z m 21.97828,-1.21875 q -0.9375,0.79687 -1.79687,1.125 -0.85936,0.3125 -1.84374,0.3125 -1.60937,0 -2.48437,-0.78125 -0.875,-0.79688 -0.875,-2.03125 0,-0.73438 0.32812,-1.32813 0.32813,-0.59375 0.85938,-0.95312 0.53125,-0.35938 1.20312,-0.54688 0.5,-0.14062 1.48438,-0.25 2.03123,-0.25 2.98436,-0.57812 0,-0.34375 0,-0.4375 0,-1.01563 -0.46875,-1.4375 -0.64063,-0.5625 -1.90625,-0.5625 -1.17186,0 -1.73436,0.40625 -0.5625,0.40625 -0.82813,1.46875 l -1.64062,-0.23438 q 0.23437,-1.04687 0.73437,-1.6875 0.51563,-0.64062 1.46875,-0.98437 0.96875,-0.35938 2.24999,-0.35938 1.26562,0 2.04687,0.29688 0.78125,0.29687 1.15625,0.75 0.375,0.45312 0.51563,1.14062 0.0937,0.42188 0.0937,1.53125 l 0,2.23438 q 0,2.32812 0.0937,2.95312 0.10937,0.60938 0.4375,1.17188 l -1.75,0 q -0.26563,-0.51563 -0.32813,-1.21875 z m -0.14062,-3.71875 q -0.90625,0.35937 -2.73436,0.625 -1.03125,0.14062 -1.45313,0.32812 -0.42187,0.1875 -0.65625,0.54688 -0.23437,0.35937 -0.23437,0.79687 0,0.67188 0.5,1.125 0.51562,0.4375 1.48437,0.4375 0.96874,0 1.71874,-0.42187 0.75,-0.4375 1.10937,-1.15625 0.26563,-0.57813 0.26563,-1.67188 l 0,-0.60937 z m 4.07886,8.71875 0,-13.64063 1.53125,0 0,1.28125 q 0.53125,-0.75 1.20312,-1.125 0.6875,-0.375 1.64063,-0.375 1.26562,0 2.23437,0.65625 0.96875,0.64063 1.45313,1.82813 0.5,1.1875 0.5,2.59375 0,1.51562 -0.54688,2.73437 -0.54687,1.20313 -1.57812,1.84375 -1.03125,0.64063 -2.17188,0.64063 -0.84375,0 -1.51562,-0.34375 -0.65625,-0.35938 -1.07813,-0.89063 l 0,4.79688 -1.67187,0 z m 1.51562,-8.65625 q 0,1.90625 0.76563,2.8125 0.78125,0.90625 1.875,0.90625 1.10937,0 1.89062,-0.9375 0.79688,-0.9375 0.79688,-2.92188 0,-1.875 -0.78125,-2.8125 -0.76563,-0.9375 -1.84375,-0.9375 -1.0625,0 -1.89063,1 -0.8125,1 -0.8125,2.89063 z m 8.18823,1.9375 1.65625,-0.26563 q 0.14063,1 0.76563,1.53125 0.64062,0.51563 1.78125,0.51563 1.15625,0 1.70312,-0.46875 0.5625,-0.46875 0.5625,-1.09375 0,-0.5625 -0.48437,-0.89063 -0.34375,-0.21875 -1.70313,-0.5625 -1.84375,-0.46875 -2.5625,-0.79687 -0.70312,-0.34375 -1.07812,-0.9375 -0.35938,-0.60938 -0.35938,-1.32813 0,-0.65625 0.29688,-1.21875 0.3125,-0.5625 0.82812,-0.9375 0.39063,-0.28125 1.0625,-0.48437 0.67188,-0.20313 1.4375,-0.20313 1.17188,0 2.04688,0.34375 0.875,0.32813 1.28125,0.90625 0.42187,0.5625 0.57812,1.51563 l -1.625,0.21875 q -0.10937,-0.75 -0.65625,-1.17188 -0.53125,-0.4375 -1.5,-0.4375 -1.15625,0 -1.64062,0.39063 -0.48438,0.375 -0.48438,0.875 0,0.32812 0.20313,0.59375 0.20312,0.26562 0.64062,0.4375 0.25,0.0937 1.46875,0.4375 1.76563,0.46875 2.46875,0.76562 0.70313,0.29688 1.09375,0.875 0.40625,0.57813 0.40625,1.4375 0,0.82813 -0.48437,1.57813 -0.48438,0.73437 -1.40625,1.14062 -0.92188,0.39063 -2.07813,0.39063 -1.92187,0 -2.9375,-0.79688 -1,-0.79687 -1.28125,-2.35937 z" />
  <path
     style="fill:#000000;fill-opacity:0;fill-rule:nonzero"
     inkscape:connector-curvature="0"
     id="path171"
     d="m 256,112 40,0 0,40 -40,0 z" />
  <path
     style="fill:#000000;fill-rule:nonzero"
     inkscape:connector-curvature="0"
     id="path173"
     d="m 266.71875,138.91998 0,-1.90625 1.90625,0 0,1.90625 -1.90625,0 z m 5.18329,0 0,-1.90625 1.90625,0 0,1.90625 -1.90625,0 z m 5.18332,0 0,-1.90625 1.90625,0 0,1.90625 -1.90625,0 z" />
  <path
     style="fill:#000000;fill-opacity:0;fill-rule:nonzero"
     inkscape:connector-curvature="0"
     id="path175"
     d="m 160,72 0,56" />
  <path
     style="stroke:#000000;stroke-width:2;stroke-linecap:butt;stroke-linejoin:round"
     inkscape:connector-curvature="0"
     id="path177"
     d="m 160,72 0,49.14584" />
  <path
     style="fill:#000000;fill-rule:evenodd;stroke:#000000;stroke-width:2;stroke-linecap:butt"
     inkscape:connector-curvature="0"
     id="path179"
     d="m 160,121.1458 -2.24918,-2.24915 2.24918,6.17954 2.24918,-6.17954 z" />
  <path
     style="fill:#000000;fill-opacity:0;fill-rule:nonzero"
     inkscape:connector-curvature="0"
     id="path181"
     d="m 280,120 144,0 0,40 -144,0 z" />
  <path
     style="fill:#000000;fill-rule:nonzero"
     inkscape:connector-curvature="0"
     id="path183"
     d="m 296.07812,146.91998 -1.67187,0 0,-10.64063 q -0.59375,0.57813 -1.57813,1.15625 -0.98437,0.5625 -1.76562,0.85938 l 0,-1.625 q 1.40625,-0.65625 2.45312,-1.59375 1.04688,-0.9375 1.48438,-1.8125 l 1.07812,0 0,13.65625 z m 4.07886,-6.70313 q 0,-2.42187 0.5,-3.89062 0.5,-1.46875 1.46875,-2.26563 0.98437,-0.79687 2.46875,-0.79687 1.09375,0 1.92187,0.4375 0.82813,0.4375 1.35938,1.28125 0.54687,0.82812 0.84375,2.01562 0.3125,1.1875 0.3125,3.21875 0,2.39063 -0.5,3.85938 -0.48438,1.46875 -1.46875,2.28125 -0.96875,0.79687 -2.46875,0.79687 -1.96875,0 -3.07813,-1.40625 -1.35937,-1.70312 -1.35937,-5.53125 z m 1.71875,0 q 0,3.34375 0.78125,4.45313 0.79687,1.10937 1.9375,1.10937 1.15625,0 1.9375,-1.10937 0.78125,-1.125 0.78125,-4.45313 0,-3.35937 -0.78125,-4.46875 -0.78125,-1.10937 -1.95313,-1.10937 -1.15625,0 -1.82812,0.98437 -0.875,1.23438 -0.875,4.59375 z m 8.65695,0 q 0,-2.42187 0.5,-3.89062 0.5,-1.46875 1.46875,-2.26563 0.98437,-0.79687 2.46875,-0.79687 1.09375,0 1.92187,0.4375 0.82813,0.4375 1.35938,1.28125 0.54687,0.82812 0.84375,2.01562 0.3125,1.1875 0.3125,3.21875 0,2.39063 -0.5,3.85938 -0.48438,1.46875 -1.46875,2.28125 -0.96875,0.79687 -2.46875,0.79687 -1.96875,0 -3.07813,-1.40625 -1.35937,-1.70312 -1.35937,-5.53125 z m 1.71875,0 q 0,3.34375 0.78125,4.45313 0.79687,1.10937 1.9375,1.10937 1.15625,0 1.9375,-1.10937 0.78125,-1.125 0.78125,-4.45313 0,-3.35937 -0.78125,-4.46875 -0.78125,-1.10937 -1.95313,-1.10937 -1.15625,0 -1.82812,0.98437 -0.875,1.23438 -0.875,4.59375 z m 8.65695,0 q 0,-2.42187 0.5,-3.89062 0.5,-1.46875 1.46875,-2.26563 0.98438,-0.79687 2.46875,-0.79687 1.09375,0 1.92188,0.4375 0.82812,0.4375 1.35937,1.28125 0.54688,0.82812 0.84375,2.01562 0.3125,1.1875 0.3125,3.21875 0,2.39063 -0.5,3.85938 -0.48437,1.46875 -1.46875,2.28125 -0.96875,0.79687 -2.46875,0.79687 -1.96875,0 -3.07812,-1.40625 -1.35938,-1.70312 -1.35938,-5.53125 z m 1.71875,0 q 0,3.34375 0.78125,4.45313 0.79688,1.10937 1.9375,1.10937 1.15625,0 1.9375,-1.10937 0.78125,-1.125 0.78125,-4.45313 0,-3.35937 -0.78125,-4.46875 -0.78125,-1.10937 -1.95312,-1.10937 -1.15625,0 -1.82813,0.98437 -0.875,1.23438 -0.875,4.59375 z m 8.65698,0 q 0,-2.42187 0.5,-3.89062 0.5,-1.46875 1.46875,-2.26563 0.98438,-0.79687 2.46875,-0.79687 1.09375,0 1.92188,0.4375 0.82812,0.4375 1.35937,1.28125 0.54688,0.82812 0.84375,2.01562 0.3125,1.1875 0.3125,3.21875 0,2.39063 -0.5,3.85938 -0.48437,1.46875 -1.46875,2.28125 -0.96875,0.79687 -2.46875,0.79687 -1.96875,0 -3.07812,-1.40625 -1.35938,-1.70312 -1.35938,-5.53125 z m 1.71875,0 q 0,3.34375 0.78125,4.45313 0.79688,1.10937 1.9375,1.10937 1.15625,0 1.9375,-1.10937 0.78125,-1.125 0.78125,-4.45313 0,-3.35937 -0.78125,-4.46875 -0.78125,-1.10937 -1.95312,-1.10937 -1.15625,0 -1.82813,0.98437 -0.875,1.23438 -0.875,4.59375 z m 8.65699,0 q 0,-2.42187 0.5,-3.89062 0.5,-1.46875 1.46875,-2.26563 0.98437,-0.79687 2.46875,-0.79687 1.09375,0 1.92187,0.4375 0.82813,0.4375 1.35938,1.28125 0.54687,0.82812 0.84375,2.01562 0.3125,1.1875 0.3125,3.21875 0,2.39063 -0.5,3.85938 -0.48438,1.46875 -1.46875,2.28125 -0.96875,0.79687 -2.46875,0.79687 -1.96875,0 -3.07813,-1.40625 -1.35937,-1.70312 -1.35937,-5.53125 z m 1.71875,0 q 0,3.34375 0.78125,4.45313 0.79687,1.10937 1.9375,1.10937 1.15625,0 1.9375,-1.10937 0.78125,-1.125 0.78125,-4.45313 0,-3.35937 -0.78125,-4.46875 -0.78125,-1.10937 -1.95313,-1.10937 -1.15625,0 -1.82812,0.98437 -0.875,1.23438 -0.875,4.59375 z m 14.95379,6.70313 -1.67187,0 0,-10.64063 q -0.59375,0.57813 -1.57813,1.15625 -0.98437,0.5625 -1.76562,0.85938 l 0,-1.625 q 1.40625,-0.65625 2.45312,-1.59375 1.04688,-0.9375 1.48438,-1.8125 l 1.07812,0 0,13.65625 z m 10.37573,0 -1.67187,0 0,-10.64063 q -0.59375,0.57813 -1.57813,1.15625 -0.98437,0.5625 -1.76562,0.85938 l 0,-1.625 q 1.40625,-0.65625 2.45312,-1.59375 1.04688,-0.9375 1.48438,-1.8125 l 1.07812,0 0,13.65625 z" />
  <path
     style="fill:#000000;fill-opacity:0;fill-rule:nonzero"
     inkscape:connector-curvature="0"
     id="path185"
     d="m 368,112 40,0 0,40 -40,0 z" />
  <path
     style="fill:#000000;fill-rule:nonzero"
     inkscape:connector-curvature="0"
     id="path187"
     d="m 378.71875,138.91998 0,-1.90625 1.90625,0 0,1.90625 -1.90625,0 z m 5.18329,0 0,-1.90625 1.90625,0 0,1.90625 -1.90625,0 z m 5.18329,0 0,-1.90625 1.90625,0 0,1.90625 -1.90625,0 z" />
  <path
     style="fill:#000000;fill-opacity:0;fill-rule:nonzero"
     inkscape:connector-curvature="0"
     id="path189"
     d="m 568,72 0,22.99976 -272,0 L 296,128" />
  <path
     style="stroke:#000000;stroke-width:2;stroke-linecap:butt;stroke-linejoin:round"
     inkscape:connector-curvature="0"
     id="path191"
     d="m 568,72 0,22.99976 -272,0 0,26.14608" />
  <path
     style="fill:#000000;fill-rule:evenodd;stroke:#000000;stroke-width:2;stroke-linecap:butt"
     inkscape:connector-curvature="0"
     id="path193"
     d="m 296,121.1458 -2.24918,-2.24915 2.24918,6.17954 2.24918,-6.17954 z" />
  <path
     style="fill:#000000;fill-opacity:0;fill-rule:nonzero"
     inkscape:connector-curvature="0"
     id="path195"
     d="m 280,72 0,15.00015 -100,0 L 180,128" />
  <path
     style="stroke:#000000;stroke-width:2;stroke-linecap:butt;stroke-linejoin:round"
     inkscape:connector-curvature="0"
     id="path197"
     d="m 280,72 0,15.00015 -100,0 0,34.14569" />
  <path
     style="fill:#000000;fill-rule:evenodd;stroke:#000000;stroke-width:2;stroke-linecap:butt"
     inkscape:connector-curvature="0"
     id="path199"
     d="m 180,121.1458 -2.24918,-2.24915 2.24918,6.17954 2.24918,-6.17954 z" />
  <path
     style="fill:#cfe2f3;fill-rule:nonzero"
     inkscape:connector-curvature="0"
     id="path201"
     d="m 496,128 16,0 0,24 -16,0 z" />
  <path
     style="stroke:#000000;stroke-width:2;stroke-linecap:butt;stroke-linejoin:round"
     inkscape:connector-curvature="0"
     id="path203"
     d="m 496,128 16,0 0,24 -16,0 z" />
  <path
     style="fill:#c9daf8;fill-rule:nonzero"
     inkscape:connector-curvature="0"
     id="path205"
     d="m 432,120 256,0 0,40 -256,0 z" />
  <path
     style="stroke:#000000;stroke-width:2;stroke-linecap:butt;stroke-linejoin:round"
     inkscape:connector-curvature="0"
     id="path207"
     d="m 432,120 256,0 0,40 -256,0 z" />
  <path
     style="fill:#000000;fill-opacity:0;fill-rule:nonzero"
     inkscape:connector-curvature="0"
     id="path209"
     d="m 488,120 144,0 0,40 -144,0 z" />
  <path
     style="fill:#000000;fill-rule:nonzero"
     inkscape:connector-curvature="0"
     id="path211"
     d="m 504.0781,146.91998 -1.67188,0 0,-10.64063 q -0.59375,0.57813 -1.57812,1.15625 -0.98438,0.5625 -1.76563,0.85938 l 0,-1.625 q 1.40625,-0.65625 2.45313,-1.59375 1.04687,-0.9375 1.48437,-1.8125 l 1.07813,0 0,13.65625 z m 10.37573,0 -1.67187,0 0,-10.64063 q -0.59375,0.57813 -1.57813,1.15625 -0.98437,0.5625 -1.76562,0.85938 l 0,-1.625 q 1.40625,-0.65625 2.45312,-1.59375 1.04688,-0.9375 1.48438,-1.8125 l 1.07812,0 0,13.65625 z m 10.37573,0 -1.67187,0 0,-10.64063 q -0.59375,0.57813 -1.57813,1.15625 -0.98437,0.5625 -1.76562,0.85938 l 0,-1.625 q 1.40625,-0.65625 2.45312,-1.59375 1.04688,-0.9375 1.48438,-1.8125 l 1.07812,0 0,13.65625 z m 4.0788,-6.70313 q 0,-2.42187 0.5,-3.89062 0.5,-1.46875 1.46875,-2.26563 0.98438,-0.79687 2.46875,-0.79687 1.09375,0 1.92188,0.4375 0.82812,0.4375 1.35937,1.28125 0.54688,0.82812 0.84375,2.01562 0.3125,1.1875 0.3125,3.21875 0,2.39063 -0.5,3.85938 -0.48437,1.46875 -1.46875,2.28125 -0.96875,0.79687 -2.46875,0.79687 -1.96875,0 -3.07812,-1.40625 -1.35938,-1.70312 -1.35938,-5.53125 z m 1.71875,0 q 0,3.34375 0.78125,4.45313 0.79688,1.10937 1.9375,1.10937 1.15625,0 1.9375,-1.10937 0.78125,-1.125 0.78125,-4.45313 0,-3.35937 -0.78125,-4.46875 -0.78125,-1.10937 -1.95312,-1.10937 -1.15625,0 -1.82813,0.98437 -0.875,1.23438 -0.875,4.59375 z" />
  <path
     style="fill:#000000;fill-opacity:0;fill-rule:nonzero"
     inkscape:connector-curvature="0"
     id="path213"
     d="m 536,112 40,0 0,40 -40,0 z" />
  <path
     style="fill:#000000;fill-rule:nonzero"
     inkscape:connector-curvature="0"
     id="path215"
     d="m 546.71875,138.91998 0,-1.90625 1.90625,0 0,1.90625 -1.90625,0 z m 5.18329,0 0,-1.90625 1.90625,0 0,1.90625 -1.90625,0 z m 5.18329,0 0,-1.90625 1.90625,0 0,1.90625 -1.90625,0 z" />
  <path
     style="fill:#000000;fill-opacity:0;fill-rule:nonzero"
     inkscape:connector-curvature="0"
     id="path217"
     d="m 464,112 40,0 0,40 -40,0 z" />
  <path
     style="fill:#000000;fill-rule:nonzero"
     inkscape:connector-curvature="0"
     id="path219"
     d="m 474.71875,138.91998 0,-1.90625 1.90625,0 0,1.90625 -1.90625,0 z m 5.18329,0 0,-1.90625 1.90625,0 0,1.90625 -1.90625,0 z m 5.18329,0 0,-1.90625 1.90625,0 0,1.90625 -1.90625,0 z" />
  <path
     style="fill:#000000;fill-opacity:0;fill-rule:nonzero"
     inkscape:connector-curvature="0"
     id="path221"
     d="m 448,72 0,32.00009 56,0 L 504,128" />
  <path
     style="stroke:#000000;stroke-width:2;stroke-linecap:butt;stroke-linejoin:round"
     inkscape:connector-curvature="0"
     id="path223"
     d="m 448,72 0,32.00009 56,0 0,17.14575" />
  <path
     style="fill:#000000;fill-rule:evenodd;stroke:#000000;stroke-width:2;stroke-linecap:butt"
     inkscape:connector-curvature="0"
     id="path225"
     d="m 504,121.1458 -2.24915,-2.24915 2.24915,6.17954 2.24915,-6.17954 z" />
</svg>
