<?xml version="1.0" encoding="UTF-8" standalone="no"?>
<svg
   xmlns:dc="http://purl.org/dc/elements/1.1/"
   xmlns:cc="http://creativecommons.org/ns#"
   xmlns:rdf="http://www.w3.org/1999/02/22-rdf-syntax-ns#"
   xmlns:svg="http://www.w3.org/2000/svg"
   xmlns="http://www.w3.org/2000/svg"
   xmlns:sodipodi="http://sodipodi.sourceforge.net/DTD/sodipodi-0.dtd"
   xmlns:inkscape="http://www.inkscape.org/namespaces/inkscape"
   version="1.1"
   viewBox="0 0 674 256"
   stroke-miterlimit="10"
   id="svg2"
   inkscape:version="0.48.4 r9939"
   width="100%"
   height="100%"
   sodipodi:docname="mark-flow.svg"
   style="fill:none;stroke:none">
  <metadata
     id="metadata159">
    <rdf:RDF>
      <cc:Work
         rdf:about="">
        <dc:format>image/svg+xml</dc:format>
        <dc:type
           rdf:resource="http://purl.org/dc/dcmitype/StillImage" />
      </cc:Work>
    </rdf:RDF>
  </metadata>
  <defs
     id="defs157" />
  <sodipodi:namedview
     pagecolor="#ffffff"
     bordercolor="#666666"
     borderopacity="1"
     objecttolerance="10"
     gridtolerance="10"
     guidetolerance="10"
     inkscape:pageopacity="0"
     inkscape:pageshadow="2"
     inkscape:window-width="640"
     inkscape:window-height="480"
     id="namedview155"
     showgrid="false"
     fit-margin-top="0"
     fit-margin-left="0"
     fit-margin-right="0"
     fit-margin-bottom="0"
     inkscape:zoom="0.26367188"
     inkscape:cx="448"
     inkscape:cy="28"
     inkscape:window-x="0"
     inkscape:window-y="0"
     inkscape:window-maximized="0"
     inkscape:current-layer="svg2" />
  <clipPath
     id="p.0">
    <path
       d="m 0,0 1024,0 0,768 L 0,768 0,0 z"
       clip-rule="nonzero"
       id="path5"
       inkscape:connector-curvature="0" />
  </clipPath>
  <path
     style="fill:#000000;fill-opacity:0;fill-rule:nonzero"
     inkscape:connector-curvature="0"
     id="path11"
     d="M 576,180 576,36" />
  <path
     style="stroke:#cccccc;stroke-width:2;stroke-linecap:butt;stroke-linejoin:round"
     inkscape:connector-curvature="0"
     id="path13"
     d="M 576,180 576,42.85417" />
  <path
     style="fill:#cccccc;fill-rule:evenodd;stroke:#cccccc;stroke-width:2;stroke-linecap:butt"
     inkscape:connector-curvature="0"
     id="path15"
     d="m 576,42.85417 2.24915,2.24918 L 576,38.9238 l -2.24915,6.17955 z" />
  <path
     style="fill:#000000;fill-opacity:0;fill-rule:nonzero"
     inkscape:connector-curvature="0"
     id="path17"
     d="M 640,180 640,36" />
  <path
     style="stroke:#cccccc;stroke-width:2;stroke-linecap:butt;stroke-linejoin:round"
     inkscape:connector-curvature="0"
     id="path19"
     d="M 640,180 640,42.85417" />
  <path
     style="fill:#cccccc;fill-rule:evenodd;stroke:#cccccc;stroke-width:2;stroke-linecap:butt"
     inkscape:connector-curvature="0"
     id="path21"
     d="m 640,42.85417 2.24915,2.24918 L 640,38.9238 l -2.24915,6.17955 z" />
  <path
     style="fill:#000000;fill-opacity:0;fill-rule:nonzero"
     inkscape:connector-curvature="0"
     id="path23"
     d="m 320,132 0,-96" />
  <path
     style="stroke:#cccccc;stroke-width:2;stroke-linecap:butt;stroke-linejoin:round"
     inkscape:connector-curvature="0"
     id="path25"
     d="m 320,132 0,-89.14583" />
  <path
     style="fill:#cccccc;fill-rule:evenodd;stroke:#cccccc;stroke-width:2;stroke-linecap:butt"
     inkscape:connector-curvature="0"
     id="path27"
     d="m 320,42.85417 2.24918,2.24918 L 320,38.9238 l -2.24918,6.17955 z" />
  <path
     style="fill:#000000;fill-opacity:0;fill-rule:nonzero"
     inkscape:connector-curvature="0"
     id="path29"
     d="m 384,132 0,-96" />
  <path
     style="stroke:#cccccc;stroke-width:2;stroke-linecap:butt;stroke-linejoin:round"
     inkscape:connector-curvature="0"
     id="path31"
     d="m 384,132 0,-89.14583" />
  <path
     style="fill:#cccccc;fill-rule:evenodd;stroke:#cccccc;stroke-width:2;stroke-linecap:butt"
     inkscape:connector-curvature="0"
     id="path33"
     d="m 384,42.85417 2.24918,2.24918 L 384,38.9238 l -2.24918,6.17955 z" />
  <path
     style="fill:#000000;fill-opacity:0;fill-rule:nonzero"
     inkscape:connector-curvature="0"
     id="path35"
     d="m 448,132 0,-96" />
  <path
     style="stroke:#cccccc;stroke-width:2;stroke-linecap:butt;stroke-linejoin:round"
     inkscape:connector-curvature="0"
     id="path37"
     d="m 448,132 0,-89.14583" />
  <path
     style="fill:#cccccc;fill-rule:evenodd;stroke:#cccccc;stroke-width:2;stroke-linecap:butt"
     inkscape:connector-curvature="0"
     id="path39"
     d="m 448,42.85417 2.24915,2.24918 L 448,38.9238 l -2.24918,6.17955 z" />
  <path
     style="fill:#000000;fill-opacity:0;fill-rule:nonzero"
     inkscape:connector-curvature="0"
     id="path41"
     d="m 504,132 0,-96" />
  <path
     style="stroke:#cccccc;stroke-width:2;stroke-linecap:butt;stroke-linejoin:round"
     inkscape:connector-curvature="0"
     id="path43"
     d="m 504,132 0,-89.14583" />
  <path
     style="fill:#cccccc;fill-rule:evenodd;stroke:#cccccc;stroke-width:2;stroke-linecap:butt"
     inkscape:connector-curvature="0"
     id="path45"
     d="m 504,42.85417 2.24915,2.24918 L 504,38.9238 l -2.24915,6.17955 z" />
  <path
     style="fill:#000000;fill-opacity:0;fill-rule:nonzero"
     inkscape:connector-curvature="0"
     id="path47"
     d="m 200,84 0,-48" />
  <path
     style="stroke:#cccccc;stroke-width:2;stroke-linecap:butt;stroke-linejoin:round"
     inkscape:connector-curvature="0"
     id="path49"
     d="m 200,84 0,-41.14583" />
  <path
     style="fill:#cccccc;fill-rule:evenodd;stroke:#cccccc;stroke-width:2;stroke-linecap:butt"
     inkscape:connector-curvature="0"
     id="path51"
     d="m 200,42.85417 2.24918,2.24918 L 200,38.9238 l -2.24918,6.17955 z" />
  <path
     style="fill:#000000;fill-opacity:0;fill-rule:nonzero"
     inkscape:connector-curvature="0"
     id="path53"
     d="m 256,84 0,-48" />
  <path
     style="stroke:#cccccc;stroke-width:2;stroke-linecap:butt;stroke-linejoin:round"
     inkscape:connector-curvature="0"
     id="path55"
     d="m 256,84 0,-41.14583" />
  <path
     style="fill:#cccccc;fill-rule:evenodd;stroke:#cccccc;stroke-width:2;stroke-linecap:butt"
     inkscape:connector-curvature="0"
     id="path57"
     d="m 256,42.85417 2.24918,2.24918 L 256,38.9238 l -2.24918,6.17955 z" />
  <path
     style="fill:#000000;fill-opacity:0;fill-rule:nonzero"
     inkscape:connector-curvature="0"
     id="path59"
     d="m 544,4 0,248" />
  <path
     style="stroke:#000000;stroke-width:8;stroke-linecap:butt;stroke-linejoin:round"
     inkscape:connector-curvature="0"
     id="path61"
     d="m 544,4 0,248" />
  <path
     style="fill:#000000;fill-opacity:0;fill-rule:nonzero"
     inkscape:connector-curvature="0"
     id="path63"
     d="m 0,111 176,0 0,40 -176,0 z" />
  <path
     style="fill:#000000;fill-rule:nonzero"
     inkscape:connector-curvature="0"
     id="path65"
     d="m 10.40625,137.91998 0,-13.59375 2.71875,0 3.21875,9.625 q 0.4375,1.34375 0.640625,2.01562 0.234375,-0.75 0.734375,-2.1875 l 3.25,-9.45312 2.421875,0 0,13.59375 -1.734375,0 0,-11.39063 -3.953125,11.39063 -1.625,0 -3.9375,-11.57813 0,11.57813 -1.734375,0 z m 21.822052,-1.21875 q -0.9375,0.79687 -1.796875,1.125 -0.859375,0.3125 -1.84375,0.3125 -1.609375,0 -2.484375,-0.78125 -0.875,-0.79688 -0.875,-2.03125 0,-0.73438 0.328125,-1.32813 0.328125,-0.59375 0.859375,-0.95312 0.53125,-0.35938 1.203125,-0.54688 0.5,-0.14062 1.484375,-0.25 2.03125,-0.25 2.984375,-0.57812 0,-0.34375 0,-0.4375 0,-1.01563 -0.46875,-1.4375 -0.640625,-0.5625 -1.90625,-0.5625 -1.171875,0 -1.734375,0.40625 -0.5625,0.40625 -0.828125,1.46875 l -1.640625,-0.23438 q 0.234375,-1.04687 0.734375,-1.6875 0.515625,-0.64062 1.46875,-0.98437 0.96875,-0.35938 2.25,-0.35938 1.265625,0 2.046875,0.29688 0.78125,0.29687 1.15625,0.75 0.375,0.45312 0.515625,1.14062 0.09375,0.42188 0.09375,1.53125 l 0,2.23438 q 0,2.32812 0.09375,2.95312 0.109375,0.60938 0.4375,1.17188 l -1.75,0 q -0.265625,-0.51563 -0.328125,-1.21875 z m -0.140625,-3.71875 q -0.90625,0.35937 -2.734375,0.625 -1.03125,0.14062 -1.453125,0.32812 -0.421875,0.1875 -0.65625,0.54688 -0.234375,0.35937 -0.234375,0.79687 0,0.67188 0.5,1.125 0.515625,0.4375 1.484375,0.4375 0.96875,0 1.71875,-0.42187 0.75,-0.4375 1.109375,-1.15625 0.265625,-0.57813 0.265625,-1.67188 l 0,-0.60937 z m 4.063213,4.9375 0,-9.85938 1.5,0 0,1.5 q 0.57813,-1.04687 1.0625,-1.375 0.48438,-0.34375 1.07813,-0.34375 0.84375,0 1.71875,0.54688 l -0.57813,1.54687 q -0.60937,-0.35937 -1.23437,-0.35937 -0.54688,0 -0.98438,0.32812 -0.42187,0.32813 -0.60937,0.90625 -0.28125,0.89063 -0.28125,1.95313 l 0,5.15625 -1.67188,0 z m 6.24393,0 0,-13.59375 1.67188,0 0,7.75 3.95312,-4.01563 2.15625,0 -3.76562,3.65625 4.14062,6.20313 -2.0625,0 -3.25,-5.03125 -1.17187,1.125 0,3.90625 -1.67188,0 z m 16.04268,0 -1.54687,0 0,-13.59375 1.65625,0 0,4.84375 q 1.0625,-1.32813 2.70312,-1.32813 0.90625,0 1.71875,0.375 0.8125,0.35938 1.32812,1.03125 0.53125,0.65625 0.82813,1.59375 0.29687,0.9375 0.29687,2 0,2.53125 -1.25,3.92188 -1.24999,1.375 -2.99999,1.375 -1.75,0 -2.73438,-1.45313 l 0,1.23438 z m -0.0156,-5 q 0,1.76562 0.46875,2.5625 0.79687,1.28125 2.14062,1.28125 1.09375,0 1.89063,-0.9375 0.79687,-0.95313 0.79687,-2.84375 0,-1.92188 -0.76562,-2.84375 -0.76563,-0.92188 -1.84375,-0.92188 -1.09375,0 -1.89063,0.95313 -0.79687,0.95312 -0.79687,2.75 z m 8.86009,-6.6875 0,-1.90625 1.67187,0 0,1.90625 -1.67187,0 z m 0,11.6875 0,-9.85938 1.67187,0 0,9.85938 -1.67187,0 z m 7.78544,-1.5 0.23438,1.48437 q -0.70313,0.14063 -1.26563,0.14063 -0.90625,0 -1.40625,-0.28125 -0.5,-0.29688 -0.70312,-0.75 -0.20313,-0.46875 -0.20313,-1.98438 l 0,-5.65625 -1.23437,0 0,-1.3125 1.23437,0 0,-2.4375 1.65625,-1 0,3.4375 1.6875,0 0,1.3125 -1.6875,0 0,5.75 q 0,0.71875 0.0781,0.92188 0.0937,0.20312 0.29687,0.32812 0.20313,0.125 0.57813,0.125 0.26562,0 0.73437,-0.0781 z m 1.52706,1.5 0,-9.85938 1.5,0 0,1.39063 q 0.45312,-0.71875 1.21875,-1.15625 0.78125,-0.45313 1.76562,-0.45313 1.09375,0 1.79688,0.45313 0.70312,0.45312 0.98437,1.28125 1.17188,-1.73438 3.04688,-1.73438 1.46875,0 2.25,0.8125 0.79687,0.8125 0.79687,2.5 l 0,6.76563 -1.67187,0 0,-6.20313 q 0,-1 -0.15625,-1.4375 -0.15625,-0.45312 -0.59375,-0.71875 -0.42188,-0.26562 -1,-0.26562 -1.03125,0 -1.71875,0.6875 -0.6875,0.6875 -0.6875,2.21875 l 0,5.71875 -1.67188,0 0,-6.40625 q 0,-1.10938 -0.40625,-1.65625 -0.40625,-0.5625 -1.34375,-0.5625 -0.70312,0 -1.3125,0.375 -0.59375,0.35937 -0.85937,1.07812 -0.26563,0.71875 -0.26563,2.0625 l 0,5.10938 -1.67187,0 z m 21.9783,-1.21875 q -0.9375,0.79687 -1.79688,1.125 -0.85937,0.3125 -1.84375,0.3125 -1.60937,0 -2.48437,-0.78125 -0.875,-0.79688 -0.875,-2.03125 0,-0.73438 0.32812,-1.32813 0.32813,-0.59375 0.85938,-0.95312 0.53125,-0.35938 1.20312,-0.54688 0.5,-0.14062 1.48438,-0.25 2.03125,-0.25 2.98437,-0.57812 0,-0.34375 0,-0.4375 0,-1.01563 -0.46875,-1.4375 -0.64062,-0.5625 -1.90625,-0.5625 -1.17187,0 -1.73437,0.40625 -0.5625,0.40625 -0.82813,1.46875 l -1.64062,-0.23438 q 0.23437,-1.04687 0.73437,-1.6875 0.51563,-0.64062 1.46875,-0.98437 0.96875,-0.35938 2.25,-0.35938 1.26563,0 2.04688,0.29688 0.78125,0.29687 1.15625,0.75 0.375,0.45312 0.51562,1.14062 0.0937,0.42188 0.0937,1.53125 l 0,2.23438 q 0,2.32812 0.0937,2.95312 0.10938,0.60938 0.4375,1.17188 l -1.75,0 q -0.26562,-0.51563 -0.32812,-1.21875 z m -0.14063,-3.71875 q -0.90625,0.35937 -2.73437,0.625 -1.03125,0.14062 -1.45313,0.32812 -0.42187,0.1875 -0.65625,0.54688 -0.23437,0.35937 -0.23437,0.79687 0,0.67188 0.5,1.125 0.51562,0.4375 1.48437,0.4375 0.96875,0 1.71875,-0.42187 0.75,-0.4375 1.10938,-1.15625 0.26562,-0.57813 0.26562,-1.67188 l 0,-0.60937 z m 4.07885,8.71875 0,-13.64063 1.53125,0 0,1.28125 q 0.53125,-0.75 1.20312,-1.125 0.6875,-0.375 1.64063,-0.375 1.26562,0 2.23437,0.65625 0.96875,0.64063 1.45313,1.82813 0.5,1.1875 0.5,2.59375 0,1.51562 -0.54688,2.73437 -0.54687,1.20313 -1.57812,1.84375 -1.03125,0.64063 -2.17188,0.64063 -0.84375,0 -1.51562,-0.34375 -0.65625,-0.35938 -1.07813,-0.89063 l 0,4.79688 -1.67187,0 z m 1.51562,-8.65625 q 0,1.90625 0.76563,2.8125 0.78125,0.90625 1.875,0.90625 1.10937,0 1.89062,-0.9375 0.79688,-0.9375 0.79688,-2.92188 0,-1.875 -0.78125,-2.8125 -0.76563,-0.9375 -1.84375,-0.9375 -1.0625,0 -1.89063,1 -0.8125,1 -0.8125,2.89063 z m 14.24652,4.875 0,-13.59375 1.84375,0 7.14063,10.67187 0,-10.67187 1.71875,0 0,13.59375 -1.84375,0 -7.14063,-10.6875 0,10.6875 -1.71875,0 z" />
  <path
     style="fill:#000000;fill-opacity:0;fill-rule:nonzero"
     inkscape:connector-curvature="0"
     id="path67"
     d="m 176,92 112,0 0,32 -112,0 z" />
  <path
     style="fill:#000000;fill-rule:nonzero"
     inkscape:connector-curvature="0"
     id="path69"
     d="m 212.52133,118.91998 0,-9.85938 1.5,0 0,1.39063 q 0.45312,-0.71875 1.21875,-1.15625 0.78125,-0.45313 1.76562,-0.45313 1.09375,0 1.79688,0.45313 0.70312,0.45312 0.98437,1.28125 1.17188,-1.73438 3.04688,-1.73438 1.46875,0 2.25,0.8125 0.79687,0.8125 0.79687,2.5 l 0,6.76563 -1.67187,0 0,-6.20313 q 0,-1 -0.15625,-1.4375 -0.15625,-0.45312 -0.59375,-0.71875 -0.42188,-0.26562 -1,-0.26562 -1.03125,0 -1.71875,0.6875 -0.6875,0.6875 -0.6875,2.21875 l 0,5.71875 -1.67188,0 0,-6.40625 q 0,-1.10938 -0.40625,-1.65625 -0.40625,-0.5625 -1.34375,-0.5625 -0.70312,0 -1.3125,0.375 -0.59375,0.35937 -0.85937,1.07812 -0.26563,0.71875 -0.26563,2.0625 l 0,5.10938 -1.67187,0 z m 21.9783,-1.21875 q -0.9375,0.79687 -1.79687,1.125 -0.85938,0.3125 -1.84375,0.3125 -1.60938,0 -2.48438,-0.78125 -0.875,-0.79688 -0.875,-2.03125 0,-0.73438 0.32813,-1.32813 0.32812,-0.59375 0.85937,-0.95312 0.53125,-0.35938 1.20313,-0.54688 0.5,-0.14062 1.48437,-0.25 2.03125,-0.25 2.98438,-0.57812 0,-0.34375 0,-0.4375 0,-1.01563 -0.46875,-1.4375 -0.64063,-0.5625 -1.90625,-0.5625 -1.17188,0 -1.73438,0.40625 -0.5625,0.40625 -0.82812,1.46875 l -1.64063,-0.23438 q 0.23438,-1.04687 0.73438,-1.6875 0.51562,-0.64062 1.46875,-0.98437 0.96875,-0.35938 2.25,-0.35938 1.26562,0 2.04687,0.29688 0.78125,0.29687 1.15625,0.75 0.375,0.45312 0.51563,1.14062 0.0937,0.42188 0.0937,1.53125 l 0,2.23438 q 0,2.32812 0.0937,2.95312 0.10937,0.60938 0.4375,1.17188 l -1.75,0 q -0.26563,-0.51563 -0.32813,-1.21875 z m -0.14062,-3.71875 q -0.90625,0.35937 -2.73438,0.625 -1.03125,0.14062 -1.45312,0.32812 -0.42188,0.1875 -0.65625,0.54688 -0.23438,0.35937 -0.23438,0.79687 0,0.67188 0.5,1.125 0.51563,0.4375 1.48438,0.4375 0.96875,0 1.71875,-0.42187 0.75,-0.4375 1.10937,-1.15625 0.26563,-0.57813 0.26563,-1.67188 l 0,-0.60937 z m 4.06323,4.9375 0,-9.85938 1.5,0 0,1.5 q 0.57812,-1.04687 1.0625,-1.375 0.48437,-0.34375 1.07812,-0.34375 0.84375,0 1.71875,0.54688 l -0.57812,1.54687 q -0.60938,-0.35937 -1.23438,-0.35937 -0.54687,0 -0.98437,0.32812 -0.42188,0.32813 -0.60938,0.90625 -0.28125,0.89063 -0.28125,1.95313 l 0,5.15625 -1.67187,0 z m 6.24393,0 0,-13.59375 1.67187,0 0,7.75 3.95313,-4.01563 2.15625,0 -3.76563,3.65625 4.14063,6.20313 -2.0625,0 -3.25,-5.03125 -1.17188,1.125 0,3.90625 -1.67187,0 z" />
  <path
     style="fill:#000000;fill-opacity:0;fill-rule:nonzero"
     inkscape:connector-curvature="0"
     id="path71"
     d="m 288,4 0,248" />
  <path
     style="stroke:#000000;stroke-width:8;stroke-linecap:butt;stroke-linejoin:round"
     inkscape:connector-curvature="0"
     id="path73"
     d="m 288,4 0,248" />
  <path
     style="fill:#000000;fill-opacity:0;fill-rule:nonzero"
     inkscape:connector-curvature="0"
     id="path75"
     d="m 176,132 112,0" />
  <path
     style="stroke:#0000ff;stroke-width:4;stroke-linecap:butt;stroke-linejoin:round"
     inkscape:connector-curvature="0"
     id="path77"
     d="m 176,132 98.29166,0" />
  <path
     style="fill:#0000ff;fill-rule:evenodd;stroke:#0000ff;stroke-width:4;stroke-linecap:butt"
     inkscape:connector-curvature="0"
     id="path79"
     d="m 274.29166,132 -4.49835,4.49832 12.3591,-4.49832 -12.3591,-4.49832 z" />
  <path
     style="fill:#000000;fill-opacity:0;fill-rule:nonzero"
     inkscape:connector-curvature="0"
     id="path81"
     d="m 288,132 256,0" />
  <path
     style="stroke:#0000ff;stroke-width:4;stroke-linecap:butt;stroke-linejoin:round"
     inkscape:connector-curvature="0"
     id="path83"
     d="m 288,132 240.84003,0" />
  <path
     style="fill:#0000ff;fill-rule:nonzero;stroke:#0000ff;stroke-width:4;stroke-linecap:butt"
     inkscape:connector-curvature="0"
     id="path85"
     d="m 542,132 c 0,3.63403 -2.94598,6.57999 -6.58002,6.57999 -3.63403,0 -6.57995,-2.94596 -6.57995,-6.57999 0,-3.63403 2.94592,-6.57999 6.57995,-6.57999 3.63404,0 6.58002,2.94596 6.58002,6.57999 z" />
  <path
     style="fill:#000000;fill-opacity:0;fill-rule:nonzero"
     inkscape:connector-curvature="0"
     id="path87"
     d="m 288,92 256,0 0,32 -256,0 z" />
  <path
     style="fill:#000000;fill-rule:nonzero"
     inkscape:connector-curvature="0"
     id="path89"
     d="m 390.29498,118.91998 0,-9.85938 1.5,0 0,1.39063 q 0.45312,-0.71875 1.21875,-1.15625 0.78125,-0.45313 1.76562,-0.45313 1.09375,0 1.79688,0.45313 0.70312,0.45312 0.98437,1.28125 1.17188,-1.73438 3.04688,-1.73438 1.46875,0 2.25,0.8125 0.79687,0.8125 0.79687,2.5 l 0,6.76563 -1.67187,0 0,-6.20313 q 0,-1 -0.15625,-1.4375 -0.15625,-0.45312 -0.59375,-0.71875 -0.42188,-0.26562 -1,-0.26562 -1.03125,0 -1.71875,0.6875 -0.6875,0.6875 -0.6875,2.21875 l 0,5.71875 -1.67188,0 0,-6.40625 q 0,-1.10938 -0.40625,-1.65625 -0.40625,-0.5625 -1.34375,-0.5625 -0.70312,0 -1.3125,0.375 -0.59375,0.35937 -0.85937,1.07812 -0.26563,0.71875 -0.26563,2.0625 l 0,5.10938 -1.67187,0 z m 21.97833,-1.21875 q -0.9375,0.79687 -1.79687,1.125 -0.85938,0.3125 -1.84375,0.3125 -1.60938,0 -2.48438,-0.78125 -0.875,-0.79688 -0.875,-2.03125 0,-0.73438 0.32813,-1.32813 0.32812,-0.59375 0.85937,-0.95312 0.53125,-0.35938 1.20313,-0.54688 0.5,-0.14062 1.48437,-0.25 2.03125,-0.25 2.98438,-0.57812 0,-0.34375 0,-0.4375 0,-1.01563 -0.46875,-1.4375 -0.64063,-0.5625 -1.90625,-0.5625 -1.17188,0 -1.73438,0.40625 -0.5625,0.40625 -0.82812,1.46875 l -1.64063,-0.23438 q 0.23438,-1.04687 0.73438,-1.6875 0.51562,-0.64062 1.46875,-0.98437 0.96875,-0.35938 2.25,-0.35938 1.26562,0 2.04687,0.29688 0.78125,0.29687 1.15625,0.75 0.375,0.45312 0.51563,1.14062 0.0937,0.42188 0.0937,1.53125 l 0,2.23438 q 0,2.32812 0.0937,2.95312 0.10937,0.60938 0.4375,1.17188 l -1.75,0 q -0.26563,-0.51563 -0.32813,-1.21875 z m -0.14062,-3.71875 q -0.90625,0.35937 -2.73438,0.625 -1.03125,0.14062 -1.45312,0.32812 -0.42188,0.1875 -0.65625,0.54688 -0.23438,0.35937 -0.23438,0.79687 0,0.67188 0.5,1.125 0.51563,0.4375 1.48438,0.4375 0.96875,0 1.71875,-0.42187 0.75,-0.4375 1.10937,-1.15625 0.26563,-0.57813 0.26563,-1.67188 l 0,-0.60937 z m 4.04758,4.9375 0,-13.59375 1.67187,0 0,13.59375 -1.67187,0 z m 4.1448,0 0,-13.59375 1.67188,0 0,13.59375 -1.67188,0 z m 3.55109,-4.92188 q 0,-2.73437 1.53125,-4.0625 1.26562,-1.09375 3.09375,-1.09375 2.03125,0 3.3125,1.34375 1.29687,1.32813 1.29687,3.67188 0,1.90625 -0.57812,3 -0.5625,1.07812 -1.65625,1.6875 -1.07813,0.59375 -2.375,0.59375 -2.0625,0 -3.34375,-1.32813 -1.28125,-1.32812 -1.28125,-3.8125 z m 1.71875,0 q 0,1.89063 0.82812,2.82813 0.82813,0.9375 2.07813,0.9375 1.25,0 2.0625,-0.9375 0.82812,-0.95313 0.82812,-2.89063 0,-1.82812 -0.82812,-2.76562 -0.82813,-0.9375 -2.0625,-0.9375 -1.25,0 -2.07813,0.9375 -0.82812,0.9375 -0.82812,2.82812 z m 15.71948,1.3125 1.64062,0.21875 q -0.26562,1.6875 -1.375,2.65625 -1.10937,0.95313 -2.73437,0.95313 -2.01563,0 -3.25,-1.3125 -1.21875,-1.32813 -1.21875,-3.79688 0,-1.59375 0.51562,-2.78125 0.53125,-1.20312 1.60938,-1.79687 1.09375,-0.60938 2.35937,-0.60938 1.60938,0 2.625,0.8125 1.01563,0.8125 1.3125,2.3125 l -1.625,0.25 q -0.23437,-1 -0.82812,-1.5 -0.59375,-0.5 -1.42188,-0.5 -1.26562,0 -2.0625,0.90625 -0.78125,0.90625 -0.78125,2.85938 0,1.98437 0.76563,2.89062 0.76562,0.89063 1.98437,0.89063 0.98438,0 1.64063,-0.59375 0.65625,-0.60938 0.84375,-1.85938 z" />
  <path
     style="fill:#000000;fill-opacity:0;fill-rule:nonzero"
     inkscape:connector-curvature="0"
     id="path91"
     d="m 0,159 176,0 0,40 -176,0 z" />
  <path
     style="fill:#000000;fill-rule:nonzero"
     inkscape:connector-curvature="0"
     id="path93"
     d="m 10.40625,185.91998 0,-13.59375 2.71875,0 3.21875,9.625 q 0.4375,1.34375 0.640625,2.01562 0.234375,-0.75 0.734375,-2.1875 l 3.25,-9.45312 2.421875,0 0,13.59375 -1.734375,0 0,-11.39063 -3.953125,11.39063 -1.625,0 -3.9375,-11.57813 0,11.57813 -1.734375,0 z m 21.822052,-1.21875 q -0.9375,0.79687 -1.796875,1.125 -0.859375,0.3125 -1.84375,0.3125 -1.609375,0 -2.484375,-0.78125 -0.875,-0.79688 -0.875,-2.03125 0,-0.73438 0.328125,-1.32813 0.328125,-0.59375 0.859375,-0.95312 0.53125,-0.35938 1.203125,-0.54688 0.5,-0.14062 1.484375,-0.25 2.03125,-0.25 2.984375,-0.57812 0,-0.34375 0,-0.4375 0,-1.01563 -0.46875,-1.4375 -0.640625,-0.5625 -1.90625,-0.5625 -1.171875,0 -1.734375,0.40625 -0.5625,0.40625 -0.828125,1.46875 l -1.640625,-0.23438 q 0.234375,-1.04687 0.734375,-1.6875 0.515625,-0.64062 1.46875,-0.98437 0.96875,-0.35938 2.25,-0.35938 1.265625,0 2.046875,0.29688 0.78125,0.29687 1.15625,0.75 0.375,0.45312 0.515625,1.14062 0.09375,0.42188 0.09375,1.53125 l 0,2.23438 q 0,2.32812 0.09375,2.95312 0.109375,0.60938 0.4375,1.17188 l -1.75,0 q -0.265625,-0.51563 -0.328125,-1.21875 z m -0.140625,-3.71875 q -0.90625,0.35937 -2.734375,0.625 -1.03125,0.14062 -1.453125,0.32812 -0.421875,0.1875 -0.65625,0.54688 -0.234375,0.35937 -0.234375,0.79687 0,0.67188 0.5,1.125 0.515625,0.4375 1.484375,0.4375 0.96875,0 1.71875,-0.42187 0.75,-0.4375 1.109375,-1.15625 0.265625,-0.57813 0.265625,-1.67188 l 0,-0.60937 z m 4.063213,4.9375 0,-9.85938 1.5,0 0,1.5 q 0.57813,-1.04687 1.0625,-1.375 0.48438,-0.34375 1.07813,-0.34375 0.84375,0 1.71875,0.54688 l -0.57813,1.54687 q -0.60937,-0.35937 -1.23437,-0.35937 -0.54688,0 -0.98438,0.32812 -0.42187,0.32813 -0.60937,0.90625 -0.28125,0.89063 -0.28125,1.95313 l 0,5.15625 -1.67188,0 z m 6.24393,0 0,-13.59375 1.67188,0 0,7.75 3.95312,-4.01563 2.15625,0 -3.76562,3.65625 4.14062,6.20313 -2.0625,0 -3.25,-5.03125 -1.17187,1.125 0,3.90625 -1.67188,0 z m 16.04268,0 -1.54687,0 0,-13.59375 1.65625,0 0,4.84375 q 1.0625,-1.32813 2.70312,-1.32813 0.90625,0 1.71875,0.375 0.8125,0.35938 1.32812,1.03125 0.53125,0.65625 0.82813,1.59375 0.29687,0.9375 0.29687,2 0,2.53125 -1.25,3.92188 -1.24999,1.375 -2.99999,1.375 -1.75,0 -2.73438,-1.45313 l 0,1.23438 z m -0.0156,-5 q 0,1.76562 0.46875,2.5625 0.79687,1.28125 2.14062,1.28125 1.09375,0 1.89063,-0.9375 0.79687,-0.95313 0.79687,-2.84375 0,-1.92188 -0.76562,-2.84375 -0.76563,-0.92188 -1.84375,-0.92188 -1.09375,0 -1.89063,0.95313 -0.79687,0.95312 -0.79687,2.75 z m 8.86009,-6.6875 0,-1.90625 1.67187,0 0,1.90625 -1.67187,0 z m 0,11.6875 0,-9.85938 1.67187,0 0,9.85938 -1.67187,0 z m 7.78544,-1.5 0.23438,1.48437 q -0.70313,0.14063 -1.26563,0.14063 -0.90625,0 -1.40625,-0.28125 -0.5,-0.29688 -0.70312,-0.75 -0.20313,-0.46875 -0.20313,-1.98438 l 0,-5.65625 -1.23437,0 0,-1.3125 1.23437,0 0,-2.4375 1.65625,-1 0,3.4375 1.6875,0 0,1.3125 -1.6875,0 0,5.75 q 0,0.71875 0.0781,0.92188 0.0937,0.20312 0.29687,0.32812 0.20313,0.125 0.57813,0.125 0.26562,0 0.73437,-0.0781 z m 1.52706,1.5 0,-9.85938 1.5,0 0,1.39063 q 0.45312,-0.71875 1.21875,-1.15625 0.78125,-0.45313 1.76562,-0.45313 1.09375,0 1.79688,0.45313 0.70312,0.45312 0.98437,1.28125 1.17188,-1.73438 3.04688,-1.73438 1.46875,0 2.25,0.8125 0.79687,0.8125 0.79687,2.5 l 0,6.76563 -1.67187,0 0,-6.20313 q 0,-1 -0.15625,-1.4375 -0.15625,-0.45312 -0.59375,-0.71875 -0.42188,-0.26562 -1,-0.26562 -1.03125,0 -1.71875,0.6875 -0.6875,0.6875 -0.6875,2.21875 l 0,5.71875 -1.67188,0 0,-6.40625 q 0,-1.10938 -0.40625,-1.65625 -0.40625,-0.5625 -1.34375,-0.5625 -0.70312,0 -1.3125,0.375 -0.59375,0.35937 -0.85937,1.07812 -0.26563,0.71875 -0.26563,2.0625 l 0,5.10938 -1.67187,0 z m 21.9783,-1.21875 q -0.9375,0.79687 -1.79688,1.125 -0.85937,0.3125 -1.84375,0.3125 -1.60937,0 -2.48437,-0.78125 -0.875,-0.79688 -0.875,-2.03125 0,-0.73438 0.32812,-1.32813 0.32813,-0.59375 0.85938,-0.95312 0.53125,-0.35938 1.20312,-0.54688 0.5,-0.14062 1.48438,-0.25 2.03125,-0.25 2.98437,-0.57812 0,-0.34375 0,-0.4375 0,-1.01563 -0.46875,-1.4375 -0.64062,-0.5625 -1.90625,-0.5625 -1.17187,0 -1.73437,0.40625 -0.5625,0.40625 -0.82813,1.46875 l -1.64062,-0.23438 q 0.23437,-1.04687 0.73437,-1.6875 0.51563,-0.64062 1.46875,-0.98437 0.96875,-0.35938 2.25,-0.35938 1.26563,0 2.04688,0.29688 0.78125,0.29687 1.15625,0.75 0.375,0.45312 0.51562,1.14062 0.0937,0.42188 0.0937,1.53125 l 0,2.23438 q 0,2.32812 0.0937,2.95312 0.10938,0.60938 0.4375,1.17188 l -1.75,0 q -0.26562,-0.51563 -0.32812,-1.21875 z m -0.14063,-3.71875 q -0.90625,0.35937 -2.73437,0.625 -1.03125,0.14062 -1.45313,0.32812 -0.42187,0.1875 -0.65625,0.54688 -0.23437,0.35937 -0.23437,0.79687 0,0.67188 0.5,1.125 0.51562,0.4375 1.48437,0.4375 0.96875,0 1.71875,-0.42187 0.75,-0.4375 1.10938,-1.15625 0.26562,-0.57813 0.26562,-1.67188 l 0,-0.60937 z m 4.07885,8.71875 0,-13.64063 1.53125,0 0,1.28125 q 0.53125,-0.75 1.20312,-1.125 0.6875,-0.375 1.64063,-0.375 1.26562,0 2.23437,0.65625 0.96875,0.64063 1.45313,1.82813 0.5,1.1875 0.5,2.59375 0,1.51562 -0.54688,2.73437 -0.54687,1.20313 -1.57812,1.84375 -1.03125,0.64063 -2.17188,0.64063 -0.84375,0 -1.51562,-0.34375 -0.65625,-0.35938 -1.07813,-0.89063 l 0,4.79688 -1.67187,0 z m 1.51562,-8.65625 q 0,1.90625 0.76563,2.8125 0.78125,0.90625 1.875,0.90625 1.10937,0 1.89062,-0.9375 0.79688,-0.9375 0.79688,-2.92188 0,-1.875 -0.78125,-2.8125 -0.76563,-0.9375 -1.84375,-0.9375 -1.0625,0 -1.89063,1 -0.8125,1 -0.8125,2.89063 z m 14.24652,4.875 0,-13.59375 1.84375,0 7.14063,10.67187 0,-10.67187 1.71875,0 0,13.59375 -1.84375,0 -7.14063,-10.6875 0,10.6875 -1.71875,0 z m 16.78545,-2.20313 0,-3.71875 -3.70313,0 0,-1.5625 3.70313,0 0,-3.70312 1.57812,0 0,3.70312 3.6875,0 0,1.5625 -3.6875,0 0,3.71875 -1.57812,0 z m 13.20746,2.20313 -1.67188,0 0,-10.64063 q -0.59375,0.57813 -1.57812,1.15625 -0.98438,0.5625 -1.76563,0.85938 l 0,-1.625 q 1.40625,-0.65625 2.45313,-1.59375 1.04687,-0.9375 1.48437,-1.8125 l 1.07813,0 0,13.65625 z" />
  <path
     style="fill:#000000;fill-opacity:0;fill-rule:nonzero"
     inkscape:connector-curvature="0"
     id="path95"
     d="m 0,207 176,0 0,40 -176,0 z" />
  <path
     style="fill:#000000;fill-rule:nonzero"
     inkscape:connector-curvature="0"
     id="path97"
     d="m 10.40625,233.91998 0,-13.59375 2.71875,0 3.21875,9.625 q 0.4375,1.34375 0.640625,2.01562 0.234375,-0.75 0.734375,-2.1875 l 3.25,-9.45312 2.421875,0 0,13.59375 -1.734375,0 0,-11.39063 -3.953125,11.39063 -1.625,0 -3.9375,-11.57813 0,11.57813 -1.734375,0 z m 21.822052,-1.21875 q -0.9375,0.79687 -1.796875,1.125 -0.859375,0.3125 -1.84375,0.3125 -1.609375,0 -2.484375,-0.78125 -0.875,-0.79688 -0.875,-2.03125 0,-0.73438 0.328125,-1.32813 0.328125,-0.59375 0.859375,-0.95312 0.53125,-0.35938 1.203125,-0.54688 0.5,-0.14062 1.484375,-0.25 2.03125,-0.25 2.984375,-0.57812 0,-0.34375 0,-0.4375 0,-1.01563 -0.46875,-1.4375 -0.640625,-0.5625 -1.90625,-0.5625 -1.171875,0 -1.734375,0.40625 -0.5625,0.40625 -0.828125,1.46875 l -1.640625,-0.23438 q 0.234375,-1.04687 0.734375,-1.6875 0.515625,-0.64062 1.46875,-0.98437 0.96875,-0.35938 2.25,-0.35938 1.265625,0 2.046875,0.29688 0.78125,0.29687 1.15625,0.75 0.375,0.45312 0.515625,1.14062 0.09375,0.42188 0.09375,1.53125 l 0,2.23438 q 0,2.32812 0.09375,2.95312 0.109375,0.60938 0.4375,1.17188 l -1.75,0 q -0.265625,-0.51563 -0.328125,-1.21875 z m -0.140625,-3.71875 q -0.90625,0.35937 -2.734375,0.625 -1.03125,0.14062 -1.453125,0.32812 -0.421875,0.1875 -0.65625,0.54688 -0.234375,0.35937 -0.234375,0.79687 0,0.67188 0.5,1.125 0.515625,0.4375 1.484375,0.4375 0.96875,0 1.71875,-0.42187 0.75,-0.4375 1.109375,-1.15625 0.265625,-0.57813 0.265625,-1.67188 l 0,-0.60937 z m 4.063213,4.9375 0,-9.85938 1.5,0 0,1.5 q 0.57813,-1.04687 1.0625,-1.375 0.48438,-0.34375 1.07813,-0.34375 0.84375,0 1.71875,0.54688 l -0.57813,1.54687 q -0.60937,-0.35937 -1.23437,-0.35937 -0.54688,0 -0.98438,0.32812 -0.42187,0.32813 -0.60937,0.90625 -0.28125,0.89063 -0.28125,1.95313 l 0,5.15625 -1.67188,0 z m 6.24393,0 0,-13.59375 1.67188,0 0,7.75 3.95312,-4.01563 2.15625,0 -3.76562,3.65625 4.14062,6.20313 -2.0625,0 -3.25,-5.03125 -1.17187,1.125 0,3.90625 -1.67188,0 z m 16.04268,0 -1.54687,0 0,-13.59375 1.65625,0 0,4.84375 q 1.0625,-1.32813 2.70312,-1.32813 0.90625,0 1.71875,0.375 0.8125,0.35938 1.32812,1.03125 0.53125,0.65625 0.82813,1.59375 0.29687,0.9375 0.29687,2 0,2.53125 -1.25,3.92188 -1.24999,1.375 -2.99999,1.375 -1.75,0 -2.73438,-1.45313 l 0,1.23438 z m -0.0156,-5 q 0,1.76562 0.46875,2.5625 0.79687,1.28125 2.14062,1.28125 1.09375,0 1.89063,-0.9375 0.79687,-0.95313 0.79687,-2.84375 0,-1.92188 -0.76562,-2.84375 -0.76563,-0.92188 -1.84375,-0.92188 -1.09375,0 -1.89063,0.95313 -0.79687,0.95312 -0.79687,2.75 z m 8.86009,-6.6875 0,-1.90625 1.67187,0 0,1.90625 -1.67187,0 z m 0,11.6875 0,-9.85938 1.67187,0 0,9.85938 -1.67187,0 z m 7.78544,-1.5 0.23438,1.48437 q -0.70313,0.14063 -1.26563,0.14063 -0.90625,0 -1.40625,-0.28125 -0.5,-0.29688 -0.70312,-0.75 -0.20313,-0.46875 -0.20313,-1.98438 l 0,-5.65625 -1.23437,0 0,-1.3125 1.23437,0 0,-2.4375 1.65625,-1 0,3.4375 1.6875,0 0,1.3125 -1.6875,0 0,5.75 q 0,0.71875 0.0781,0.92188 0.0937,0.20312 0.29687,0.32812 0.20313,0.125 0.57813,0.125 0.26562,0 0.73437,-0.0781 z m 1.52706,1.5 0,-9.85938 1.5,0 0,1.39063 q 0.45312,-0.71875 1.21875,-1.15625 0.78125,-0.45313 1.76562,-0.45313 1.09375,0 1.79688,0.45313 0.70312,0.45312 0.98437,1.28125 1.17188,-1.73438 3.04688,-1.73438 1.46875,0 2.25,0.8125 0.79687,0.8125 0.79687,2.5 l 0,6.76563 -1.67187,0 0,-6.20313 q 0,-1 -0.15625,-1.4375 -0.15625,-0.45312 -0.59375,-0.71875 -0.42188,-0.26562 -1,-0.26562 -1.03125,0 -1.71875,0.6875 -0.6875,0.6875 -0.6875,2.21875 l 0,5.71875 -1.67188,0 0,-6.40625 q 0,-1.10938 -0.40625,-1.65625 -0.40625,-0.5625 -1.34375,-0.5625 -0.70312,0 -1.3125,0.375 -0.59375,0.35937 -0.85937,1.07812 -0.26563,0.71875 -0.26563,2.0625 l 0,5.10938 -1.67187,0 z m 21.9783,-1.21875 q -0.9375,0.79687 -1.79688,1.125 -0.85937,0.3125 -1.84375,0.3125 -1.60937,0 -2.48437,-0.78125 -0.875,-0.79688 -0.875,-2.03125 0,-0.73438 0.32812,-1.32813 0.32813,-0.59375 0.85938,-0.95312 0.53125,-0.35938 1.20312,-0.54688 0.5,-0.14062 1.48438,-0.25 2.03125,-0.25 2.98437,-0.57812 0,-0.34375 0,-0.4375 0,-1.01563 -0.46875,-1.4375 -0.64062,-0.5625 -1.90625,-0.5625 -1.17187,0 -1.73437,0.40625 -0.5625,0.40625 -0.82813,1.46875 l -1.64062,-0.23438 q 0.23437,-1.04687 0.73437,-1.6875 0.51563,-0.64062 1.46875,-0.98437 0.96875,-0.35938 2.25,-0.35938 1.26563,0 2.04688,0.29688 0.78125,0.29687 1.15625,0.75 0.375,0.45312 0.51562,1.14062 0.0937,0.42188 0.0937,1.53125 l 0,2.23438 q 0,2.32812 0.0937,2.95312 0.10938,0.60938 0.4375,1.17188 l -1.75,0 q -0.26562,-0.51563 -0.32812,-1.21875 z m -0.14063,-3.71875 q -0.90625,0.35937 -2.73437,0.625 -1.03125,0.14062 -1.45313,0.32812 -0.42187,0.1875 -0.65625,0.54688 -0.23437,0.35937 -0.23437,0.79687 0,0.67188 0.5,1.125 0.51562,0.4375 1.48437,0.4375 0.96875,0 1.71875,-0.42187 0.75,-0.4375 1.10938,-1.15625 0.26562,-0.57813 0.26562,-1.67188 l 0,-0.60937 z m 4.07885,8.71875 0,-13.64063 1.53125,0 0,1.28125 q 0.53125,-0.75 1.20312,-1.125 0.6875,-0.375 1.64063,-0.375 1.26562,0 2.23437,0.65625 0.96875,0.64063 1.45313,1.82813 0.5,1.1875 0.5,2.59375 0,1.51562 -0.54688,2.73437 -0.54687,1.20313 -1.57812,1.84375 -1.03125,0.64063 -2.17188,0.64063 -0.84375,0 -1.51562,-0.34375 -0.65625,-0.35938 -1.07813,-0.89063 l 0,4.79688 -1.67187,0 z m 1.51562,-8.65625 q 0,1.90625 0.76563,2.8125 0.78125,0.90625 1.875,0.90625 1.10937,0 1.89062,-0.9375 0.79688,-0.9375 0.79688,-2.92188 0,-1.875 -0.78125,-2.8125 -0.76563,-0.9375 -1.84375,-0.9375 -1.0625,0 -1.89063,1 -0.8125,1 -0.8125,2.89063 z m 14.24652,4.875 0,-13.59375 1.84375,0 7.14063,10.67187 0,-10.67187 1.71875,0 0,13.59375 -1.84375,0 -7.14063,-10.6875 0,10.6875 -1.71875,0 z m 16.78545,-2.20313 0,-3.71875 -3.70313,0 0,-1.5625 3.70313,0 0,-3.70312 1.57812,0 0,3.70312 3.6875,0 0,1.5625 -3.6875,0 0,3.71875 -1.57812,0 z m 15.69183,0.59375 0,1.60938 -8.98437,0 q -0.0156,-0.60938 0.1875,-1.15625 0.34375,-0.92188 1.09375,-1.8125 0.76562,-0.89063 2.1875,-2.0625 2.21875,-1.8125 3,-2.875 0.78125,-1.0625 0.78125,-2.01563 0,-0.98437 -0.71875,-1.67187 -0.70313,-0.6875 -1.84375,-0.6875 -1.20313,0 -1.9375,0.73437 -0.71875,0.71875 -0.71875,2 l -1.71875,-0.17187 q 0.17187,-1.92188 1.32812,-2.92188 1.15625,-1.01562 3.09375,-1.01562 1.95313,0 3.09375,1.09375 1.14063,1.07812 1.14063,2.6875 0,0.8125 -0.34375,1.60937 -0.32813,0.78125 -1.10938,1.65625 -0.76562,0.85938 -2.5625,2.39063 -1.5,1.26562 -1.9375,1.71875 -0.42187,0.4375 -0.70312,0.89062 l 6.67187,0 z" />
  <path
     style="fill:#000000;fill-opacity:0;fill-rule:nonzero"
     inkscape:connector-curvature="0"
     id="path99"
     d="m 0,63 176,0 0,40 -176,0 z" />
  <path
     style="fill:#000000;fill-rule:nonzero"
     inkscape:connector-curvature="0"
     id="path101"
     d="m 10.40625,89.92 0,-13.59375 2.71875,0 3.21875,9.625 q 0.4375,1.34375 0.640625,2.01562 0.234375,-0.75 0.734375,-2.1875 l 3.25,-9.45312 2.421875,0 0,13.59375 -1.734375,0 0,-11.39063 -3.953125,11.39063 -1.625,0 -3.9375,-11.57813 0,11.57813 -1.734375,0 z m 21.822052,-1.21875 q -0.9375,0.79687 -1.796875,1.125 -0.859375,0.3125 -1.84375,0.3125 -1.609375,0 -2.484375,-0.78125 -0.875,-0.79688 -0.875,-2.03125 0,-0.73438 0.328125,-1.32813 0.328125,-0.59375 0.859375,-0.95312 0.53125,-0.35938 1.203125,-0.54688 0.5,-0.14062 1.484375,-0.25 2.03125,-0.25 2.984375,-0.57812 0,-0.34375 0,-0.4375 0,-1.01563 -0.46875,-1.4375 -0.640625,-0.5625 -1.90625,-0.5625 -1.171875,0 -1.734375,0.40625 -0.5625,0.40625 -0.828125,1.46875 l -1.640625,-0.23438 q 0.234375,-1.04687 0.734375,-1.6875 0.515625,-0.64062 1.46875,-0.98437 0.96875,-0.35938 2.25,-0.35938 1.265625,0 2.046875,0.29688 0.78125,0.29687 1.15625,0.75 0.375,0.45312 0.515625,1.14062 0.09375,0.42188 0.09375,1.53125 l 0,2.23438 q 0,2.32812 0.09375,2.95312 0.109375,0.60938 0.4375,1.17188 l -1.75,0 Q 32.290802,89.40437 32.228302,88.70125 z M 32.087677,84.9825 q -0.90625,0.35937 -2.734375,0.625 -1.03125,0.14062 -1.453125,0.32812 -0.421875,0.1875 -0.65625,0.54688 -0.234375,0.35937 -0.234375,0.79687 0,0.67188 0.5,1.125 0.515625,0.4375 1.484375,0.4375 0.96875,0 1.71875,-0.42187 0.75,-0.4375 1.109375,-1.15625 0.265625,-0.57813 0.265625,-1.67188 l 0,-0.60937 z m 4.063213,4.9375 0,-9.85938 1.5,0 0,1.5 q 0.57813,-1.04687 1.0625,-1.375 0.48438,-0.34375 1.07813,-0.34375 0.84375,0 1.71875,0.54688 l -0.57813,1.54687 q -0.60937,-0.35937 -1.23437,-0.35937 -0.54688,0 -0.98438,0.32812 -0.42187,0.32813 -0.60937,0.90625 -0.28125,0.89063 -0.28125,1.95313 l 0,5.15625 -1.67188,0 z m 6.24393,0 0,-13.59375 1.67188,0 0,7.75 3.95312,-4.01563 2.15625,0 -3.76562,3.65625 4.14062,6.20313 -2.0625,0 -3.25,-5.03125 -1.17187,1.125 0,3.90625 -1.67188,0 z m 16.04268,0 -1.54687,0 0,-13.59375 1.65625,0 0,4.84375 q 1.0625,-1.32813 2.70312,-1.32813 0.90625,0 1.71875,0.375 0.8125,0.35938 1.32812,1.03125 0.53125,0.65625 0.82813,1.59375 0.29687,0.9375 0.29687,2 0,2.53125 -1.25,3.92188 -1.24999,1.375 -2.99999,1.375 -1.75,0 -2.73438,-1.45313 l 0,1.23438 z m -0.0156,-5 q 0,1.76562 0.46875,2.5625 0.79687,1.28125 2.14062,1.28125 1.09375,0 1.89063,-0.9375 0.79687,-0.95313 0.79687,-2.84375 0,-1.92188 -0.76562,-2.84375 -0.76563,-0.92188 -1.84375,-0.92188 -1.09375,0 -1.89063,0.95313 -0.79687,0.95312 -0.79687,2.75 z m 8.86009,-6.6875 0,-1.90625 1.67187,0 0,1.90625 -1.67187,0 z m 0,11.6875 0,-9.85938 1.67187,0 0,9.85938 -1.67187,0 z m 7.78544,-1.5 0.23438,1.48437 q -0.70313,0.14063 -1.26563,0.14063 -0.90625,0 -1.40625,-0.28125 -0.5,-0.29688 -0.70312,-0.75 -0.20313,-0.46875 -0.20313,-1.98438 l 0,-5.65625 -1.23437,0 0,-1.3125 1.23437,0 0,-2.4375 1.65625,-1 0,3.4375 1.6875,0 0,1.3125 -1.6875,0 0,5.75 q 0,0.71875 0.0781,0.92188 0.0937,0.20312 0.29687,0.32812 0.20313,0.125 0.57813,0.125 0.26562,0 0.73437,-0.0781 z m 1.52706,1.5 0,-9.85938 1.5,0 0,1.39063 q 0.45312,-0.71875 1.21875,-1.15625 0.78125,-0.45313 1.76562,-0.45313 1.09375,0 1.79688,0.45313 0.70312,0.45312 0.98437,1.28125 1.17188,-1.73438 3.04688,-1.73438 1.46875,0 2.25,0.8125 0.79687,0.8125 0.79687,2.5 l 0,6.76563 -1.67187,0 0,-6.20313 q 0,-1 -0.15625,-1.4375 -0.15625,-0.45312 -0.59375,-0.71875 -0.42188,-0.26562 -1,-0.26562 -1.03125,0 -1.71875,0.6875 -0.6875,0.6875 -0.6875,2.21875 l 0,5.71875 -1.67188,0 0,-6.40625 q 0,-1.10938 -0.40625,-1.65625 -0.40625,-0.5625 -1.34375,-0.5625 -0.70312,0 -1.3125,0.375 -0.59375,0.35937 -0.85937,1.07812 -0.26563,0.71875 -0.26563,2.0625 l 0,5.10938 -1.67187,0 z m 21.9783,-1.21875 q -0.9375,0.79687 -1.79688,1.125 -0.85937,0.3125 -1.84375,0.3125 -1.60937,0 -2.48437,-0.78125 -0.875,-0.79688 -0.875,-2.03125 0,-0.73438 0.32812,-1.32813 0.32813,-0.59375 0.85938,-0.95312 0.53125,-0.35938 1.20312,-0.54688 0.5,-0.14062 1.48438,-0.25 2.03125,-0.25 2.98437,-0.57812 0,-0.34375 0,-0.4375 0,-1.01563 -0.46875,-1.4375 -0.64062,-0.5625 -1.90625,-0.5625 -1.17187,0 -1.73437,0.40625 -0.5625,0.40625 -0.82813,1.46875 l -1.64062,-0.23438 q 0.23437,-1.04687 0.73437,-1.6875 0.51563,-0.64062 1.46875,-0.98437 0.96875,-0.35938 2.25,-0.35938 1.26563,0 2.04688,0.29688 0.78125,0.29687 1.15625,0.75 0.375,0.45312 0.51562,1.14062 0.0937,0.42188 0.0937,1.53125 l 0,2.23438 q 0,2.32812 0.0937,2.95312 0.10938,0.60938 0.4375,1.17188 l -1.75,0 Q 98.63519,89.40437 98.57269,88.70125 z M 98.43216,84.9825 q -0.90625,0.35937 -2.73437,0.625 -1.03125,0.14062 -1.45313,0.32812 -0.42187,0.1875 -0.65625,0.54688 -0.23437,0.35937 -0.23437,0.79687 0,0.67188 0.5,1.125 0.51562,0.4375 1.48437,0.4375 0.96875,0 1.71875,-0.42187 0.75,-0.4375 1.10938,-1.15625 0.26562,-0.57813 0.26562,-1.67188 l 0,-0.60937 z m 4.07885,8.71875 0,-13.64063 1.53125,0 0,1.28125 q 0.53125,-0.75 1.20312,-1.125 0.6875,-0.375 1.64063,-0.375 1.26562,0 2.23437,0.65625 0.96875,0.64063 1.45313,1.82813 0.5,1.1875 0.5,2.59375 0,1.51562 -0.54688,2.73437 -0.54687,1.20313 -1.57812,1.84375 -1.03125,0.64063 -2.17188,0.64063 -0.84375,0 -1.51562,-0.34375 -0.65625,-0.35938 -1.07813,-0.89063 l 0,4.79688 -1.67187,0 z m 1.51562,-8.65625 q 0,1.90625 0.76563,2.8125 0.78125,0.90625 1.875,0.90625 1.10937,0 1.89062,-0.9375 0.79688,-0.9375 0.79688,-2.92188 0,-1.875 -0.78125,-2.8125 -0.76563,-0.9375 -1.84375,-0.9375 -1.0625,0 -1.89063,1 -0.8125,1 -0.8125,2.89063 z m 14.24652,4.875 0,-13.59375 1.84375,0 7.14063,10.67187 0,-10.67187 1.71875,0 0,13.59375 -1.84375,0 -7.14063,-10.6875 0,10.6875 -1.71875,0 z m 12.6292,-4.07813 0,-1.6875 5.125,0 0,1.6875 -5.125,0 z m 12.68142,4.07813 -1.67187,0 0,-10.64063 q -0.59375,0.57813 -1.57813,1.15625 -0.98437,0.5625 -1.76562,0.85938 l 0,-1.625 q 1.40625,-0.65625 2.45312,-1.59375 1.04688,-0.9375 1.48438,-1.8125 l 1.07812,0 0,13.65625 z" />
  <path
     style="fill:#000000;fill-opacity:0;fill-rule:nonzero"
     inkscape:connector-curvature="0"
     id="path103"
     d="m 176,84 112,0" />
  <path
     style="stroke:#0000ff;stroke-width:4;stroke-linecap:butt;stroke-linejoin:round"
     inkscape:connector-curvature="0"
     id="path105"
     d="m 176,84 96.84,0" />
  <path
     style="fill:#0000ff;fill-rule:nonzero;stroke:#0000ff;stroke-width:4;stroke-linecap:butt"
     inkscape:connector-curvature="0"
     id="path107"
     d="m 286,84 c 0,3.63403 -2.94595,6.58 -6.57999,6.58 -3.63403,0 -6.58001,-2.94597 -6.58001,-6.58 0,-3.63403 2.94598,-6.58 6.58001,-6.58 C 283.05405,77.42 286,80.36597 286,84 z" />
  <path
     style="fill:#000000;fill-opacity:0;fill-rule:nonzero"
     inkscape:connector-curvature="0"
     id="path109"
     d="m 176,44 112,0 0,32 -112,0 z" />
  <path
     style="fill:#000000;fill-rule:nonzero"
     inkscape:connector-curvature="0"
     id="path111"
     d="m 206.29498,70.92 0,-9.85938 1.5,0 0,1.39063 q 0.45312,-0.71875 1.21875,-1.15625 0.78125,-0.45313 1.76562,-0.45313 1.09375,0 1.79688,0.45313 0.70312,0.45312 0.98437,1.28125 1.17188,-1.73438 3.04688,-1.73438 1.46875,0 2.25,0.8125 0.79687,0.8125 0.79687,2.5 l 0,6.76563 -1.67187,0 0,-6.20313 q 0,-1 -0.15625,-1.4375 -0.15625,-0.45312 -0.59375,-0.71875 -0.42188,-0.26562 -1,-0.26562 -1.03125,0 -1.71875,0.6875 -0.6875,0.6875 -0.6875,2.21875 l 0,5.71875 -1.67188,0 0,-6.40625 q 0,-1.10938 -0.40625,-1.65625 -0.40625,-0.5625 -1.34375,-0.5625 -0.70312,0 -1.3125,0.375 -0.59375,0.35937 -0.85937,1.07812 -0.26563,0.71875 -0.26563,2.0625 l 0,5.10938 -1.67187,0 z m 21.97833,-1.21875 q -0.9375,0.79687 -1.79687,1.125 -0.85938,0.3125 -1.84375,0.3125 -1.60938,0 -2.48438,-0.78125 -0.875,-0.79688 -0.875,-2.03125 0,-0.73438 0.32813,-1.32813 0.32812,-0.59375 0.85937,-0.95312 0.53125,-0.35938 1.20313,-0.54688 0.5,-0.14062 1.48437,-0.25 2.03125,-0.25 2.98438,-0.57812 0,-0.34375 0,-0.4375 0,-1.01563 -0.46875,-1.4375 -0.64063,-0.5625 -1.90625,-0.5625 -1.17188,0 -1.73438,0.40625 -0.5625,0.40625 -0.82812,1.46875 l -1.64063,-0.23438 q 0.23438,-1.04687 0.73438,-1.6875 0.51562,-0.64062 1.46875,-0.98437 0.96875,-0.35938 2.25,-0.35938 1.26562,0 2.04687,0.29688 0.78125,0.29687 1.15625,0.75 0.375,0.45312 0.51563,1.14062 0.0937,0.42188 0.0937,1.53125 l 0,2.23438 q 0,2.32812 0.0937,2.95312 0.10937,0.60938 0.4375,1.17188 l -1.75,0 q -0.26563,-0.51563 -0.32813,-1.21875 z m -0.14062,-3.71875 q -0.90625,0.35937 -2.73438,0.625 -1.03125,0.14062 -1.45312,0.32812 -0.42188,0.1875 -0.65625,0.54688 -0.23438,0.35937 -0.23438,0.79687 0,0.67188 0.5,1.125 0.51563,0.4375 1.48438,0.4375 0.96875,0 1.71875,-0.42187 0.75,-0.4375 1.10937,-1.15625 0.26563,-0.57813 0.26563,-1.67188 l 0,-0.60937 z m 4.04758,4.9375 0,-13.59375 1.67187,0 0,13.59375 -1.67187,0 z m 4.1448,0 0,-13.59375 1.67188,0 0,13.59375 -1.67188,0 z m 3.55109,-4.92188 q 0,-2.73437 1.53125,-4.0625 1.26562,-1.09375 3.09375,-1.09375 2.03125,0 3.3125,1.34375 1.29687,1.32813 1.29687,3.67188 0,1.90625 -0.57812,3 -0.5625,1.07812 -1.65625,1.6875 -1.07813,0.59375 -2.375,0.59375 -2.0625,0 -3.34375,-1.32813 -1.28125,-1.32812 -1.28125,-3.8125 z m 1.71875,0 q 0,1.89063 0.82812,2.82813 0.82813,0.9375 2.07813,0.9375 1.25,0 2.0625,-0.9375 0.82812,-0.95313 0.82812,-2.89063 0,-1.82812 -0.82812,-2.76562 -0.82813,-0.9375 -2.0625,-0.9375 -1.25,0 -2.07813,0.9375 -0.82812,0.9375 -0.82812,2.82812 z m 15.71948,1.3125 1.64062,0.21875 q -0.26562,1.6875 -1.375,2.65625 -1.10937,0.95313 -2.73437,0.95313 -2.01563,0 -3.25,-1.3125 -1.21875,-1.32813 -1.21875,-3.79688 0,-1.59375 0.51562,-2.78125 0.53125,-1.20312 1.60938,-1.79687 1.09375,-0.60938 2.35937,-0.60938 1.60938,0 2.625,0.8125 1.01563,0.8125 1.3125,2.3125 l -1.625,0.25 q -0.23437,-1 -0.82812,-1.5 -0.59375,-0.5 -1.42188,-0.5 -1.26562,0 -2.0625,0.90625 -0.78125,0.90625 -0.78125,2.85938 0,1.98437 0.76563,2.89062 0.76562,0.89063 1.98437,0.89063 0.98438,0 1.64063,-0.59375 0.65625,-0.60938 0.84375,-1.85938 z" />
  <path
     style="fill:#000000;fill-opacity:0;fill-rule:nonzero"
     inkscape:connector-curvature="0"
     id="path113"
     d="m 432,180 112,0" />
  <path
     style="stroke:#0000ff;stroke-width:4;stroke-linecap:butt;stroke-linejoin:round"
     inkscape:connector-curvature="0"
     id="path115"
     d="m 432,180 98.29169,0" />
  <path
     style="fill:#0000ff;fill-rule:evenodd;stroke:#0000ff;stroke-width:4;stroke-linecap:butt"
     inkscape:connector-curvature="0"
     id="path117"
     d="m 530.2916,180 -4.49829,4.49832 L 538.15238,180 525.79331,175.50168 z" />
  <path
     style="fill:#000000;fill-opacity:0;fill-rule:nonzero"
     inkscape:connector-curvature="0"
     id="path119"
     d="m 432,140 112,0 0,32 -112,0 z" />
  <path
     style="fill:#000000;fill-rule:nonzero"
     inkscape:connector-curvature="0"
     id="path121"
     d="m 468.52136,166.91998 0,-9.85938 1.5,0 0,1.39063 q 0.45312,-0.71875 1.21875,-1.15625 0.78125,-0.45313 1.76562,-0.45313 1.09375,0 1.79688,0.45313 0.70312,0.45312 0.98437,1.28125 1.17188,-1.73438 3.04688,-1.73438 1.46875,0 2.25,0.8125 0.79687,0.8125 0.79687,2.5 l 0,6.76563 -1.67187,0 0,-6.20313 q 0,-1 -0.15625,-1.4375 -0.15625,-0.45312 -0.59375,-0.71875 -0.42188,-0.26562 -1,-0.26562 -1.03125,0 -1.71875,0.6875 -0.6875,0.6875 -0.6875,2.21875 l 0,5.71875 -1.67188,0 0,-6.40625 q 0,-1.10938 -0.40625,-1.65625 -0.40625,-0.5625 -1.34375,-0.5625 -0.70312,0 -1.3125,0.375 -0.59375,0.35937 -0.85937,1.07812 -0.26563,0.71875 -0.26563,2.0625 l 0,5.10938 -1.67187,0 z m 21.97827,-1.21875 q -0.9375,0.79687 -1.79687,1.125 -0.85938,0.3125 -1.84375,0.3125 -1.60938,0 -2.48438,-0.78125 -0.875,-0.79688 -0.875,-2.03125 0,-0.73438 0.32813,-1.32813 0.32812,-0.59375 0.85937,-0.95312 0.53125,-0.35938 1.20313,-0.54688 0.5,-0.14062 1.48437,-0.25 2.03125,-0.25 2.98438,-0.57812 0,-0.34375 0,-0.4375 0,-1.01563 -0.46875,-1.4375 -0.64063,-0.5625 -1.90625,-0.5625 -1.17188,0 -1.73438,0.40625 -0.5625,0.40625 -0.82812,1.46875 l -1.64063,-0.23438 q 0.23438,-1.04687 0.73438,-1.6875 0.51562,-0.64062 1.46875,-0.98437 0.96875,-0.35938 2.25,-0.35938 1.26562,0 2.04687,0.29688 0.78125,0.29687 1.15625,0.75 0.375,0.45312 0.51563,1.14062 0.0937,0.42188 0.0937,1.53125 l 0,2.23438 q 0,2.32812 0.0937,2.95312 0.10937,0.60938 0.4375,1.17188 l -1.75,0 q -0.26563,-0.51563 -0.32813,-1.21875 z m -0.14062,-3.71875 q -0.90625,0.35937 -2.73438,0.625 -1.03125,0.14062 -1.45312,0.32812 -0.42188,0.1875 -0.65625,0.54688 -0.23438,0.35937 -0.23438,0.79687 0,0.67188 0.5,1.125 0.51563,0.4375 1.48438,0.4375 0.96875,0 1.71875,-0.42187 0.75,-0.4375 1.10937,-1.15625 0.26563,-0.57813 0.26563,-1.67188 l 0,-0.60937 z m 4.06323,4.9375 0,-9.85938 1.5,0 0,1.5 q 0.57812,-1.04687 1.0625,-1.375 0.48437,-0.34375 1.07812,-0.34375 0.84375,0 1.71875,0.54688 l -0.57812,1.54687 q -0.60938,-0.35937 -1.23438,-0.35937 -0.54687,0 -0.98437,0.32812 -0.42188,0.32813 -0.60938,0.90625 -0.28125,0.89063 -0.28125,1.95313 l 0,5.15625 -1.67187,0 z m 6.24389,0 0,-13.59375 1.67188,0 0,7.75 3.95312,-4.01563 2.15625,0 -3.76562,3.65625 4.14062,6.20313 -2.0625,0 -3.25,-5.03125 -1.17187,1.125 0,3.90625 -1.67188,0 z" />
  <path
     style="fill:#000000;fill-opacity:0;fill-rule:nonzero"
     inkscape:connector-curvature="0"
     id="path123"
     d="m 288,180 144,0" />
  <path
     style="stroke:#0000ff;stroke-width:4;stroke-linecap:butt;stroke-linejoin:round;stroke-dasharray:4, 12"
     inkscape:connector-curvature="0"
     id="path125"
     d="m 288,180 144,0" />
  <path
     style="fill:#000000;fill-opacity:0;fill-rule:nonzero"
     inkscape:connector-curvature="0"
     id="path127"
     d="m 288,140 144,0 0,32 -144,0 z" />
  <path
     style="fill:#000000;fill-rule:nonzero"
     inkscape:connector-curvature="0"
     id="path129"
     d="m 313.54813,166.91998 0,-9.85938 1.5,0 0,1.40625 q 1.09375,-1.625 3.14063,-1.625 0.89062,0 1.64062,0.32813 0.75,0.3125 1.10938,0.84375 0.375,0.51562 0.53125,1.21875 0.0937,0.46875 0.0937,1.625 l 0,6.0625 -1.67188,0 0,-6 q 0,-1.01563 -0.20312,-1.51563 -0.1875,-0.51562 -0.6875,-0.8125 -0.5,-0.29687 -1.17188,-0.29687 -1.0625,0 -1.84375,0.67187 -0.76562,0.67188 -0.76562,2.57813 l 0,5.375 -1.67188,0 z m 17.1257,-3.17188 1.71875,0.21875 q -0.40625,1.5 -1.51562,2.34375 -1.09375,0.82813 -2.8125,0.82813 -2.15625,0 -3.42188,-1.32813 -1.26562,-1.32812 -1.26562,-3.73437 0,-2.48438 1.26562,-3.85938 1.28125,-1.375 3.32813,-1.375 1.98437,0 3.23437,1.34375 1.25,1.34375 1.25,3.79688 0,0.14062 -0.0156,0.4375 l -7.34375,0 q 0.0937,1.625 0.92187,2.48437 0.82813,0.85938 2.0625,0.85938 0.90625,0 1.54688,-0.46875 0.65625,-0.48438 1.04687,-1.54688 z m -5.48437,-2.70312 5.5,0 q -0.10938,-1.23438 -0.625,-1.85938 -0.79688,-0.96875 -2.07813,-0.96875 -1.14062,0 -1.9375,0.78125 -0.78125,0.76563 -0.85937,2.04688 z m 10.93823,5.875 -3.01563,-9.85938 1.71875,0 1.5625,5.6875 0.59375,2.125 q 0.0312,-0.15625 0.5,-2.03125 l 1.57813,-5.78125 1.71875,0 1.46875,5.71875 0.48437,1.89063 0.57813,-1.90625 1.6875,-5.70313 1.625,0 -3.07813,9.85938 -1.73437,0 -1.57813,-5.90625 -0.375,-1.67188 -2,7.57813 -1.73437,0 z m 18.375,0 -1.54688,0 0,-13.59375 1.65625,0 0,4.84375 q 1.0625,-1.32813 2.70313,-1.32813 0.90625,0 1.71875,0.375 0.8125,0.35938 1.32812,1.03125 0.53125,0.65625 0.82813,1.59375 0.29687,0.9375 0.29687,2 0,2.53125 -1.25,3.92188 -1.25,1.375 -3,1.375 -1.75,0 -2.73437,-1.45313 l 0,1.23438 z m -0.0156,-5 q 0,1.76562 0.46875,2.5625 0.79688,1.28125 2.14063,1.28125 1.09375,0 1.89062,-0.9375 0.79688,-0.95313 0.79688,-2.84375 0,-1.92188 -0.76563,-2.84375 -0.76562,-0.92188 -1.84375,-0.92188 -1.09375,0 -1.89062,0.95313 -0.79688,0.95312 -0.79688,2.75 z m 8.86008,-6.6875 0,-1.90625 1.67188,0 0,1.90625 -1.67188,0 z m 0,11.6875 0,-9.85938 1.67188,0 0,9.85938 -1.67188,0 z m 7.78546,-1.5 0.23438,1.48437 q -0.70313,0.14063 -1.26563,0.14063 -0.90625,0 -1.40625,-0.28125 -0.5,-0.29688 -0.70312,-0.75 -0.20313,-0.46875 -0.20313,-1.98438 l 0,-5.65625 -1.23437,0 0,-1.3125 1.23437,0 0,-2.4375 1.65625,-1 0,3.4375 1.6875,0 0,1.3125 -1.6875,0 0,5.75 q 0,0.71875 0.0781,0.92188 0.0937,0.20312 0.29687,0.32812 0.20313,0.125 0.57813,0.125 0.26562,0 0.73437,-0.0781 z m 1.52704,1.5 0,-9.85938 1.5,0 0,1.39063 q 0.45313,-0.71875 1.21875,-1.15625 0.78125,-0.45313 1.76563,-0.45313 1.09375,0 1.79687,0.45313 0.70313,0.45312 0.98438,1.28125 1.17187,-1.73438 3.04687,-1.73438 1.46875,0 2.25,0.8125 0.79688,0.8125 0.79688,2.5 l 0,6.76563 -1.67188,0 0,-6.20313 q 0,-1 -0.15625,-1.4375 -0.15625,-0.45312 -0.59375,-0.71875 -0.42187,-0.26562 -1,-0.26562 -1.03125,0 -1.71875,0.6875 -0.6875,0.6875 -0.6875,2.21875 l 0,5.71875 -1.67187,0 0,-6.40625 q 0,-1.10938 -0.40625,-1.65625 -0.40625,-0.5625 -1.34375,-0.5625 -0.70313,0 -1.3125,0.375 -0.59375,0.35937 -0.85938,1.07812 -0.26562,0.71875 -0.26562,2.0625 l 0,5.10938 -1.67188,0 z m 21.9783,-1.21875 q -0.9375,0.79687 -1.79687,1.125 -0.85938,0.3125 -1.84375,0.3125 -1.60938,0 -2.48438,-0.78125 -0.875,-0.79688 -0.875,-2.03125 0,-0.73438 0.32813,-1.32813 0.32812,-0.59375 0.85937,-0.95312 0.53125,-0.35938 1.20313,-0.54688 0.5,-0.14062 1.48437,-0.25 2.03125,-0.25 2.98438,-0.57812 0,-0.34375 0,-0.4375 0,-1.01563 -0.46875,-1.4375 -0.64063,-0.5625 -1.90625,-0.5625 -1.17188,0 -1.73438,0.40625 -0.5625,0.40625 -0.82812,1.46875 l -1.64063,-0.23438 q 0.23438,-1.04687 0.73438,-1.6875 0.51562,-0.64062 1.46875,-0.98437 0.96875,-0.35938 2.25,-0.35938 1.26562,0 2.04687,0.29688 0.78125,0.29687 1.15625,0.75 0.375,0.45312 0.51563,1.14062 0.0937,0.42188 0.0937,1.53125 l 0,2.23438 q 0,2.32812 0.0937,2.95312 0.10937,0.60938 0.4375,1.17188 l -1.75,0 q -0.26563,-0.51563 -0.32813,-1.21875 z m -0.14062,-3.71875 q -0.90625,0.35937 -2.73438,0.625 -1.03125,0.14062 -1.45312,0.32812 -0.42188,0.1875 -0.65625,0.54688 -0.23438,0.35937 -0.23438,0.79687 0,0.67188 0.5,1.125 0.51563,0.4375 1.48438,0.4375 0.96875,0 1.71875,-0.42187 0.75,-0.4375 1.10937,-1.15625 0.26563,-0.57813 0.26563,-1.67188 l 0,-0.60937 z m 4.07886,8.71875 0,-13.64063 1.53125,0 0,1.28125 q 0.53125,-0.75 1.20312,-1.125 0.6875,-0.375 1.64063,-0.375 1.26562,0 2.23437,0.65625 0.96875,0.64063 1.45313,1.82813 0.5,1.1875 0.5,2.59375 0,1.51562 -0.54688,2.73437 -0.54687,1.20313 -1.57812,1.84375 -1.03125,0.64063 -2.17188,0.64063 -0.84375,0 -1.51562,-0.34375 -0.65625,-0.35938 -1.07813,-0.89063 l 0,4.79688 -1.67187,0 z m 1.51562,-8.65625 q 0,1.90625 0.76563,2.8125 0.78125,0.90625 1.875,0.90625 1.10937,0 1.89062,-0.9375 0.79688,-0.9375 0.79688,-2.92188 0,-1.875 -0.78125,-2.8125 -0.76563,-0.9375 -1.84375,-0.9375 -1.0625,0 -1.89063,1 -0.8125,1 -0.8125,2.89063 z" />
  <path
     style="fill:#000000;fill-opacity:0;fill-rule:nonzero"
     inkscape:connector-curvature="0"
     id="path131"
     d="m 544,180 128,0" />
  <path
     style="stroke:#0000ff;stroke-width:4;stroke-linecap:butt;stroke-linejoin:round"
     inkscape:connector-curvature="0"
     id="path133"
     d="m 544,180 128,0" />
  <path
     style="fill:#000000;fill-opacity:0;fill-rule:nonzero"
     inkscape:connector-curvature="0"
     id="path135"
     d="m 544,140 128,0 0,32 -128,0 z" />
  <path
     style="fill:#000000;fill-rule:nonzero"
     inkscape:connector-curvature="0"
     id="path137"
     d="m 582.295,166.91998 0,-9.85938 1.5,0 0,1.39063 q 0.45312,-0.71875 1.21875,-1.15625 0.78125,-0.45313 1.76562,-0.45313 1.09375,0 1.79688,0.45313 0.70312,0.45312 0.98437,1.28125 1.17188,-1.73438 3.04688,-1.73438 1.46875,0 2.25,0.8125 0.79687,0.8125 0.79687,2.5 l 0,6.76563 -1.67187,0 0,-6.20313 q 0,-1 -0.15625,-1.4375 -0.15625,-0.45312 -0.59375,-0.71875 -0.42188,-0.26562 -1,-0.26562 -1.03125,0 -1.71875,0.6875 -0.6875,0.6875 -0.6875,2.21875 l 0,5.71875 -1.67188,0 0,-6.40625 q 0,-1.10938 -0.40625,-1.65625 -0.40625,-0.5625 -1.34375,-0.5625 -0.70312,0 -1.3125,0.375 -0.59375,0.35937 -0.85937,1.07812 -0.26563,0.71875 -0.26563,2.0625 l 0,5.10938 -1.67187,0 z m 21.97833,-1.21875 q -0.9375,0.79687 -1.79687,1.125 -0.85938,0.3125 -1.84375,0.3125 -1.60938,0 -2.48438,-0.78125 -0.875,-0.79688 -0.875,-2.03125 0,-0.73438 0.32813,-1.32813 0.32812,-0.59375 0.85937,-0.95312 0.53125,-0.35938 1.20313,-0.54688 0.5,-0.14062 1.48437,-0.25 2.03125,-0.25 2.98438,-0.57812 0,-0.34375 0,-0.4375 0,-1.01563 -0.46875,-1.4375 -0.64063,-0.5625 -1.90625,-0.5625 -1.17188,0 -1.73438,0.40625 -0.5625,0.40625 -0.82812,1.46875 l -1.64063,-0.23438 q 0.23438,-1.04687 0.73438,-1.6875 0.51562,-0.64062 1.46875,-0.98437 0.96875,-0.35938 2.25,-0.35938 1.26562,0 2.04687,0.29688 0.78125,0.29687 1.15625,0.75 0.375,0.45312 0.51563,1.14062 0.0937,0.42188 0.0937,1.53125 l 0,2.23438 q 0,2.32812 0.0937,2.95312 0.10937,0.60938 0.4375,1.17188 l -1.75,0 q -0.26563,-0.51563 -0.32813,-1.21875 z m -0.14062,-3.71875 q -0.90625,0.35937 -2.73438,0.625 -1.03125,0.14062 -1.45312,0.32812 -0.42188,0.1875 -0.65625,0.54688 -0.23438,0.35937 -0.23438,0.79687 0,0.67188 0.5,1.125 0.51563,0.4375 1.48438,0.4375 0.96875,0 1.71875,-0.42187 0.75,-0.4375 1.10937,-1.15625 0.26563,-0.57813 0.26563,-1.67188 l 0,-0.60937 z m 4.04761,4.9375 0,-13.59375 1.67187,0 0,13.59375 -1.67187,0 z m 4.14477,0 0,-13.59375 1.67188,0 0,13.59375 -1.67188,0 z m 3.55109,-4.92188 q 0,-2.73437 1.53125,-4.0625 1.26562,-1.09375 3.09375,-1.09375 2.03125,0 3.3125,1.34375 1.29687,1.32813 1.29687,3.67188 0,1.90625 -0.57812,3 -0.5625,1.07812 -1.65625,1.6875 -1.07813,0.59375 -2.375,0.59375 -2.0625,0 -3.34375,-1.32813 -1.28125,-1.32812 -1.28125,-3.8125 z m 1.71875,0 q 0,1.89063 0.82812,2.82813 0.82813,0.9375 2.07813,0.9375 1.25,0 2.0625,-0.9375 0.82812,-0.95313 0.82812,-2.89063 0,-1.82812 -0.82812,-2.76562 -0.82813,-0.9375 -2.0625,-0.9375 -1.25,0 -2.07813,0.9375 -0.82812,0.9375 -0.82812,2.82812 z m 15.71948,1.3125 1.64062,0.21875 q -0.26562,1.6875 -1.375,2.65625 -1.10937,0.95313 -2.73437,0.95313 -2.01563,0 -3.25,-1.3125 -1.21875,-1.32813 -1.21875,-3.79688 0,-1.59375 0.51562,-2.78125 0.53125,-1.20312 1.60938,-1.79687 1.09375,-0.60938 2.35937,-0.60938 1.60938,0 2.625,0.8125 1.01563,0.8125 1.3125,2.3125 l -1.625,0.25 q -0.23437,-1 -0.82812,-1.5 -0.59375,-0.5 -1.42188,-0.5 -1.26562,0 -2.0625,0.90625 -0.78125,0.90625 -0.78125,2.85938 0,1.98437 0.76563,2.89062 0.76562,0.89063 1.98437,0.89063 0.98438,0 1.64063,-0.59375 0.65625,-0.60938 0.84375,-1.85938 z" />
  <path
     style="fill:#000000;fill-opacity:0;fill-rule:nonzero"
     inkscape:connector-curvature="0"
     id="path139"
     d="m 544,188 128,0 0,32 -128,0 z" />
  <path
     style="fill:#000000;fill-rule:nonzero"
     inkscape:connector-curvature="0"
     id="path141"
     d="m 561.5481,214.91998 0,-9.85938 1.5,0 0,1.40625 q 1.09375,-1.625 3.14062,-1.625 0.89063,0 1.64063,0.32813 0.75,0.3125 1.10937,0.84375 0.375,0.51562 0.53125,1.21875 0.0937,0.46875 0.0937,1.625 l 0,6.0625 -1.67187,0 0,-6 q 0,-1.01563 -0.20313,-1.51563 -0.1875,-0.51562 -0.6875,-0.8125 -0.5,-0.29687 -1.17187,-0.29687 -1.0625,0 -1.84375,0.67187 -0.76563,0.67188 -0.76563,2.57813 l 0,5.375 -1.67187,0 z m 17.12573,-3.17188 1.71875,0.21875 q -0.40625,1.5 -1.51562,2.34375 -1.09375,0.82813 -2.8125,0.82813 -2.15625,0 -3.42188,-1.32813 -1.26562,-1.32812 -1.26562,-3.73437 0,-2.48438 1.26562,-3.85938 1.28125,-1.375 3.32813,-1.375 1.98437,0 3.23437,1.34375 1.25,1.34375 1.25,3.79688 0,0.14062 -0.0156,0.4375 l -7.34375,0 q 0.0937,1.625 0.92187,2.48437 0.82813,0.85938 2.0625,0.85938 0.90625,0 1.54688,-0.46875 0.65625,-0.48438 1.04687,-1.54688 z m -5.48437,-2.70312 5.5,0 q -0.10938,-1.23438 -0.625,-1.85938 -0.79688,-0.96875 -2.07813,-0.96875 -1.14062,0 -1.9375,0.78125 -0.78125,0.76563 -0.85937,2.04688 z m 10.93823,5.875 -3.01563,-9.85938 1.71875,0 1.5625,5.6875 0.59375,2.125 q 0.0312,-0.15625 0.5,-2.03125 l 1.57813,-5.78125 1.71875,0 1.46875,5.71875 0.48437,1.89063 0.57813,-1.90625 1.6875,-5.70313 1.625,0 -3.07813,9.85938 -1.73437,0 -1.57813,-5.90625 -0.375,-1.67188 -2,7.57813 -1.73437,0 z m 18.375,0 -1.54688,0 0,-13.59375 1.65625,0 0,4.84375 q 1.0625,-1.32813 2.70313,-1.32813 0.90625,0 1.71875,0.375 0.8125,0.35938 1.32812,1.03125 0.53125,0.65625 0.82813,1.59375 0.29687,0.9375 0.29687,2 0,2.53125 -1.25,3.92188 -1.25,1.375 -3,1.375 -1.75,0 -2.73437,-1.45313 l 0,1.23438 z m -0.0156,-5 q 0,1.76562 0.46875,2.5625 0.79688,1.28125 2.14063,1.28125 1.09375,0 1.89062,-0.9375 0.79688,-0.95313 0.79688,-2.84375 0,-1.92188 -0.76563,-2.84375 -0.76562,-0.92188 -1.84375,-0.92188 -1.09375,0 -1.89062,0.95313 -0.79688,0.95312 -0.79688,2.75 z m 8.86011,-6.6875 0,-1.90625 1.67188,0 0,1.90625 -1.67188,0 z m 0,11.6875 0,-9.85938 1.67188,0 0,9.85938 -1.67188,0 z m 7.7854,-1.5 0.23438,1.48437 q -0.70313,0.14063 -1.26563,0.14063 -0.90625,0 -1.40625,-0.28125 -0.5,-0.29688 -0.70312,-0.75 -0.20313,-0.46875 -0.20313,-1.98438 l 0,-5.65625 -1.23437,0 0,-1.3125 1.23437,0 0,-2.4375 1.65625,-1 0,3.4375 1.6875,0 0,1.3125 -1.6875,0 0,5.75 q 0,0.71875 0.0781,0.92188 0.0937,0.20312 0.29687,0.32812 0.20313,0.125 0.57813,0.125 0.26562,0 0.73437,-0.0781 z m 1.5271,1.5 0,-9.85938 1.5,0 0,1.39063 q 0.45313,-0.71875 1.21875,-1.15625 0.78125,-0.45313 1.76563,-0.45313 1.09375,0 1.79687,0.45313 0.70313,0.45312 0.98438,1.28125 1.17187,-1.73438 3.04687,-1.73438 1.46875,0 2.25,0.8125 0.79688,0.8125 0.79688,2.5 l 0,6.76563 -1.67188,0 0,-6.20313 q 0,-1 -0.15625,-1.4375 -0.15625,-0.45312 -0.59375,-0.71875 -0.42187,-0.26562 -1,-0.26562 -1.03125,0 -1.71875,0.6875 -0.6875,0.6875 -0.6875,2.21875 l 0,5.71875 -1.67187,0 0,-6.40625 q 0,-1.10938 -0.40625,-1.65625 -0.40625,-0.5625 -1.34375,-0.5625 -0.70313,0 -1.3125,0.375 -0.59375,0.35937 -0.85938,1.07812 -0.26562,0.71875 -0.26562,2.0625 l 0,5.10938 -1.67188,0 z m 21.97827,-1.21875 q -0.9375,0.79687 -1.79687,1.125 -0.85938,0.3125 -1.84375,0.3125 -1.60938,0 -2.48438,-0.78125 -0.875,-0.79688 -0.875,-2.03125 0,-0.73438 0.32813,-1.32813 0.32812,-0.59375 0.85937,-0.95312 0.53125,-0.35938 1.20313,-0.54688 0.5,-0.14062 1.48437,-0.25 2.03125,-0.25 2.98438,-0.57812 0,-0.34375 0,-0.4375 0,-1.01563 -0.46875,-1.4375 -0.64063,-0.5625 -1.90625,-0.5625 -1.17188,0 -1.73438,0.40625 -0.5625,0.40625 -0.82812,1.46875 l -1.64063,-0.23438 q 0.23438,-1.04687 0.73438,-1.6875 0.51562,-0.64062 1.46875,-0.98437 0.96875,-0.35938 2.25,-0.35938 1.26562,0 2.04687,0.29688 0.78125,0.29687 1.15625,0.75 0.375,0.45312 0.51563,1.14062 0.0937,0.42188 0.0937,1.53125 l 0,2.23438 q 0,2.32812 0.0937,2.95312 0.10937,0.60938 0.4375,1.17188 l -1.75,0 q -0.26563,-0.51563 -0.32813,-1.21875 z m -0.14062,-3.71875 q -0.90625,0.35937 -2.73438,0.625 -1.03125,0.14062 -1.45312,0.32812 -0.42188,0.1875 -0.65625,0.54688 -0.23438,0.35937 -0.23438,0.79687 0,0.67188 0.5,1.125 0.51563,0.4375 1.48438,0.4375 0.96875,0 1.71875,-0.42187 0.75,-0.4375 1.10937,-1.15625 0.26563,-0.57813 0.26563,-1.67188 l 0,-0.60937 z m 4.07885,8.71875 0,-13.64063 1.53125,0 0,1.28125 q 0.53125,-0.75 1.20313,-1.125 0.6875,-0.375 1.64062,-0.375 1.26563,0 2.23438,0.65625 0.96875,0.64063 1.45312,1.82813 0.5,1.1875 0.5,2.59375 0,1.51562 -0.54687,2.73437 -0.54688,1.20313 -1.57813,1.84375 -1.03125,0.64063 -2.17187,0.64063 -0.84375,0 -1.51563,-0.34375 -0.65625,-0.35938 -1.07812,-0.89063 l 0,4.79688 -1.67188,0 z m 1.51563,-8.65625 q 0,1.90625 0.76562,2.8125 0.78125,0.90625 1.875,0.90625 1.10938,0 1.89063,-0.9375 0.79687,-0.9375 0.79687,-2.92188 0,-1.875 -0.78125,-2.8125 -0.76562,-0.9375 -1.84375,-0.9375 -1.0625,0 -1.89062,1 -0.8125,1 -0.8125,2.89063 z" />
  <path
     style="fill:#000000;fill-opacity:0;fill-rule:nonzero"
     inkscape:connector-curvature="0"
     id="path143"
     d="m 544,228 128,0" />
  <path
     style="stroke:#0000ff;stroke-width:4;stroke-linecap:butt;stroke-linejoin:round;stroke-dasharray:4, 12"
     inkscape:connector-curvature="0"
     id="path145"
     d="m 544,228 128,0" />
  <path
     style="fill:#000000;fill-opacity:0;fill-rule:nonzero"
     inkscape:connector-curvature="0"
     id="path147"
     d="m 176,36 496,0" />
  <path
     style="stroke:#cc4125;stroke-width:4;stroke-linecap:butt;stroke-linejoin:round"
     inkscape:connector-curvature="0"
     id="path149"
     d="m 176,36 496,0" />
  <path
     style="fill:#000000;fill-opacity:0;fill-rule:nonzero"
     inkscape:connector-curvature="0"
     id="path151"
     d="m 0,15 176,0 0,40 -176,0 z" />
  <path
     style="fill:#000000;fill-rule:nonzero"
     inkscape:connector-curvature="0"
     id="path153"
     d="m 10.515625,41.92 0,-13.59375 1.8125,0 0,5.57812 7.0625,0 0,-5.57812 1.796875,0 0,13.59375 -1.796875,0 0,-6.40625 -7.0625,0 0,6.40625 -1.8125,0 z m 19.957321,-3.17188 1.71875,0.21875 q -0.40625,1.5 -1.515625,2.34375 -1.09375,0.82813 -2.8125,0.82813 -2.15625,0 -3.421875,-1.32813 -1.265625,-1.32812 -1.265625,-3.73437 0,-2.48438 1.265625,-3.85938 1.28125,-1.375 3.328125,-1.375 1.984375,0 3.234375,1.34375 1.25,1.34375 1.25,3.79688 0,0.14062 -0.01563,0.4375 l -7.34375,0 q 0.09375,1.625 0.921875,2.48437 0.828125,0.85938 2.0625,0.85938 0.90625,0 1.546875,-0.46875 0.65625,-0.48438 1.046875,-1.54688 z m -5.484375,-2.70312 5.5,0 q -0.109375,-1.23438 -0.625,-1.85938 -0.796875,-0.96875 -2.078125,-0.96875 -1.140625,0 -1.9375,0.78125 -0.78125,0.76563 -0.859375,2.04688 z m 15.547589,4.65625 q -0.9375,0.79687 -1.79687,1.125 -0.85938,0.3125 -1.84375,0.3125 -1.609377,0 -2.484377,-0.78125 -0.875,-0.79688 -0.875,-2.03125 0,-0.73438 0.328125,-1.32813 0.328125,-0.59375 0.859375,-0.95312 0.53125,-0.35938 1.203125,-0.54688 0.500002,-0.14062 1.484372,-0.25 2.03125,-0.25 2.98438,-0.57812 0,-0.34375 0,-0.4375 0,-1.01563 -0.46875,-1.4375 -0.64063,-0.5625 -1.90625,-0.5625 -1.17188,0 -1.73438,0.40625 -0.562497,0.40625 -0.828122,1.46875 l -1.640625,-0.23438 q 0.234375,-1.04687 0.734375,-1.6875 0.515625,-0.64062 1.468752,-0.98437 0.96875,-0.35938 2.25,-0.35938 1.26562,0 2.04687,0.29688 0.78125,0.29687 1.15625,0.75 0.375,0.45312 0.51563,1.14062 0.0937,0.42188 0.0937,1.53125 l 0,2.23438 q 0,2.32812 0.0937,2.95312 0.10937,0.60938 0.4375,1.17188 l -1.75,0 Q 40.59856,41.40437 40.53606,40.70125 z M 40.39554,36.9825 q -0.90625,0.35937 -2.73438,0.625 -1.03125,0.14062 -1.45312,0.32812 -0.421877,0.1875 -0.656252,0.54688 -0.234375,0.35937 -0.234375,0.79687 0,0.67188 0.5,1.125 0.515627,0.4375 1.484377,0.4375 0.96875,0 1.71875,-0.42187 0.75,-0.4375 1.10937,-1.15625 0.26563,-0.57813 0.26563,-1.67188 l 0,-0.60937 z m 4.07884,8.71875 0,-13.64063 1.53125,0 0,1.28125 q 0.53125,-0.75 1.20312,-1.125 0.6875,-0.375 1.64063,-0.375 1.26562,0 2.23437,0.65625 0.96875,0.64063 1.45313,1.82813 0.5,1.1875 0.5,2.59375 0,1.51562 -0.54688,2.73437 -0.54687,1.20313 -1.57812,1.84375 -1.03125,0.64063 -2.17188,0.64063 -0.84375,0 -1.51562,-0.34375 -0.65625,-0.35938 -1.07813,-0.89063 l 0,4.79688 -1.67187,0 z M 45.99,37.045 q 0,1.90625 0.76563,2.8125 0.78125,0.90625 1.875,0.90625 1.10937,0 1.89062,-0.9375 0.79688,-0.9375 0.79688,-2.92188 0,-1.875 -0.78125,-2.8125 -0.76563,-0.9375 -1.84375,-0.9375 -1.0625,0 -1.89063,1 -0.8125,1 -0.8125,2.89063 z" />
</svg>
